<svg xmlns="http://www.w3.org/2000/svg" width="438" height="152" viewBox="0 0 438 152">
  <g fill="none" fill-rule="evenodd" transform="translate(-21 -20)">
    <g fill="#0069FF" transform="translate(1 17.85)">
      <path d="M76.0542315,20.7589825 C78.5259774,15.8154907 82.5307949,15.8101419 85.0052153,20.7589825 L139.70064,130.149833 C142.172386,135.093325 139.701745,139.100816 134.174405,139.100816 L26.8850423,139.100816 C21.3612406,139.100816 18.8843861,135.098673 21.3588064,130.149833 L76.0542315,20.7589825 Z" opacity=".25" transform="scale(1 -1) rotate(-70 -30.973 0)"/>
      <path d="M73.9328913,20.6497671 C76.4046372,15.7062753 80.4094547,15.7009264 82.8838751,20.6497671 L137.5793,130.040617 C140.051046,134.984109 137.580405,138.991601 132.053064,138.991601 L24.7637021,138.991601 C19.2399004,138.991601 16.7630459,134.989458 19.2374662,130.040617 L73.9328913,20.6497671 Z" opacity=".5" transform="scale(-1 1) rotate(70 0 -34.012)"/>
      <path d="M110.308782,20.7043566 C112.780528,15.7608648 116.785345,15.7555159 119.259766,20.7043566 L173.955191,130.095207 C176.426937,135.038699 173.956296,139.046191 168.428955,139.046191 L61.1395928,139.046191 C55.6157911,139.046191 53.1389366,135.044047 55.6133569,130.095207 L110.308782,20.7043566 Z" transform="rotate(90 114.784 78.02)"/>
    </g>
    <g fill="#343B4D" transform="translate(212 59)">
      <path d="M16.224 28.016C16.224 32.48 14.208 34.832 10.416 34.832 6.96 34.832 5.52 32.816 4.848 30.944 4.464 29.984 3.696 29.648 2.88 29.648 2.496 29.648 2.112 29.744 1.776 29.84.912 30.128.192 30.944.192 31.952.192 32.24.24 32.48.336 32.768.912 34.208 1.872 35.792 3.552 37.04 5.136 38.192 7.392 39.008 10.464 39.008 17.04 39.008 20.832 35.36 20.832 28.448L20.832 2.624C20.832 1.28 19.872.656 18.624.656 17.232.656 16.224 1.28 16.224 2.624L16.224 28.016zM48.7320001 25.856C50.2200001 25.856 51.1320001 24.944 51.1320001 23.216L51.1320001 22.832C50.6520001 16.544 46.7160001 11.072 39.7080001 11.072 31.8840001 11.072 27.5640001 16.88 27.5640001 25.184 27.5640001 33.488 32.1240001 39.056 39.9960001 39.056 46.2360001 39.056 49.0200001 35.888 50.5560001 32.72 50.7480001 32.432 50.7960001 32.144 50.7960001 31.856 50.7960001 30.992 50.1240001 30.416 49.3080001 30.176 48.9720001 30.08 48.6360001 29.984 48.3000001 29.984 47.6280001 29.984 47.0040001 30.32 46.5720001 31.184 45.4200001 33.728 43.5000001 35.456 40.0440001 35.456 34.8600001 35.456 31.9320001 31.76 31.8360001 25.856L48.7320001 25.856zM31.9800001 22.352C32.6040001 17.648 35.1000001 14.576 39.7080001 14.576 44.1240001 14.576 46.1880001 18.08 46.7640001 21.488L46.7640001 21.728C46.7640001 22.16 46.5720001 22.352 46.0440001 22.352L31.9800001 22.352zM59.4960003 11.744L55.8000003 11.744C54.6000003 11.744 54.0720003 12.56 54.0720003 13.664 54.0720003 14.768 54.6000003 15.536 55.7520003 15.536L59.4960003 15.536 59.4960003 32C59.4960003 37.04 62.3760003 39.008 66.3120003 39.008 68.3760003 39.008 69.6720003 38.624 71.0640003 37.952 71.7840003 37.568 72.0720003 36.896 72.0720003 36.224 72.0720003 35.888 72.0240003 35.504 71.8800003 35.168 71.5920003 34.448 71.0160003 33.92 70.2960003 33.92 70.0080003 33.92 69.7200003 34.016 69.4320003 34.16 68.6160003 34.64 67.8000003 34.976 66.6000003 34.976 64.8240003 34.976 63.8160003 33.968 63.8160003 31.616L63.8160003 15.536 69.9600003 15.536C71.1120003 15.536 71.7360003 14.768 71.7360003 13.664 71.7360003 12.512 71.1600003 11.744 69.9600003 11.744L63.8160003 11.744 63.8160003 5.936C63.8160003 4.688 62.9040003 4.016 61.6560003 4.016 60.3120003 4.016 59.4960003 4.688 59.4960003 5.936L59.4960003 11.744zM106.212 17.936C107.508 14.672 109.86 7.808 110.772 4.736 110.58 8 110.004 16.592 110.004 23.408L110.004 36.704C110.004 38 110.964 38.624 112.26 38.624 113.508 38.624 114.468 38 114.468 36.704L114.468 3.488C114.468 1.76 113.22.656 111.444.656 109.332.656 108.228 1.376 107.46 3.296L98.7720004 25.28C97.6680004 28.016 96.2280004 32.192 95.7480004 34.304 95.3160004 32.24 93.7320004 27.728 92.7720004 25.376L83.9400004 3.2C83.2200004 1.424 82.2120004.656 80.1000004.656 78.2760004.656 77.0280004 1.76 77.0280004 3.488L77.0280004 36.704C77.0280004 38 77.9400004 38.624 79.2360004 38.624 80.5800004 38.624 81.4920004 38 81.4920004 36.704L81.4920004 23.36C81.4920004 16.592 80.9160004 7.904 80.7720004 4.784 81.6840004 7.76 83.9880004 14.72 85.3800004 18.176L92.6280004 36.368C93.3000004 38.048 94.2120004 38.624 95.7000004 38.624 97.2360004 38.624 98.1000004 38.048 98.7720004 36.416L106.212 17.936zM122.400001 36.704C122.400001 38 123.216001 38.624 124.560001 38.624 125.856001 38.624 126.768001 38 126.768001 36.704L126.768001 13.328C126.768001 12.08 125.856001 11.456 124.560001 11.456 123.216001 11.456 122.400001 12.08 122.400001 13.328L122.400001 36.704zM124.608001.608C122.784001.608 121.344001 2 121.344001 3.824 121.344001 5.696 122.784001 7.088 124.608001 7.088 126.384001 7.088 127.824001 5.696 127.824001 3.824 127.824001 2 126.384001.608 124.608001.608L124.608001.608zM140.508001 24.608L132.492001 35.36C132.204001 35.744 132.060001 36.128 132.060001 36.512 132.060001 37.136 132.444001 37.712 132.924001 38.144 133.356001 38.432 133.884001 38.624 134.412001 38.624 134.940001 38.624 135.516001 38.384 135.948001 37.808L143.148001 27.68 150.300001 37.808C150.684001 38.384 151.260001 38.624 151.836001 38.624 152.316001 38.624 152.796001 38.432 153.228001 38.144 153.804001 37.76 154.140001 37.136 154.140001 36.464 154.140001 36.032 153.996001 35.6 153.708001 35.216L145.836001 24.608 153.180001 14.768C153.468001 14.384 153.612001 14 153.612001 13.616 153.612001 12.896 153.180001 12.224 152.604001 11.84 152.172001 11.552 151.740001 11.408 151.260001 11.408 150.684001 11.408 150.108001 11.648 149.676001 12.224L143.148001 21.584 136.380001 12.272C135.948001 11.696 135.372001 11.456 134.796001 11.456 134.364001 11.456 133.884001 11.6 133.452001 11.888 132.828001 12.272 132.444001 12.944 132.444001 13.616 132.444001 14 132.588001 14.384 132.876001 14.768L140.508001 24.608zM186.276001 5.168L186.276001 36.656C186.276001 37.952 187.284001 38.624 188.580001 38.624 189.876001 38.624 190.884001 37.952 190.884001 36.656L190.884001 5.168 201.780001 5.168C202.884001 5.168 203.604001 4.208 203.604001 3.104 203.604001 1.952 202.932001.944 201.780001.944L175.332001.944C174.180001.944 173.508001 1.952 173.508001 3.104 173.508001 4.208 174.180001 5.168 175.380001 5.168L186.276001 5.168zM238.368001 17.936C239.664001 14.672 242.016001 7.808 242.928001 4.736 242.736001 8 242.160001 16.592 242.160001 23.408L242.160001 36.704C242.160001 38 243.120001 38.624 244.416001 38.624 245.664001 38.624 246.624001 38 246.624001 36.704L246.624001 3.488C246.624001 1.76 245.376001.656 243.600001.656 241.488001.656 240.384001 1.376 239.616001 3.296L230.928001 25.28C229.824001 28.016 228.384001 32.192 227.904001 34.304 227.472001 32.24 225.888001 27.728 224.928001 25.376L216.096001 3.2C215.376001 1.424 214.368001.656 212.256001.656 210.432001.656 209.184001 1.76 209.184001 3.488L209.184001 36.704C209.184001 38 210.096001 38.624 211.392001 38.624 212.736001 38.624 213.648001 38 213.648001 36.704L213.648001 23.36C213.648001 16.592 213.072001 7.904 212.928001 4.784 213.840001 7.76 216.144001 14.72 217.536001 18.176L224.784001 36.368C225.456001 38.048 226.368001 38.624 227.856001 38.624 229.392001 38.624 230.256001 38.048 230.928001 36.416L238.368001 17.936zM13.29 62.35C13.2299997 61.6699966 13.0550015 61.0700026 12.765 60.55 12.4749986 60.0299974 12.1000023 59.6000017 11.64 59.26 11.1799977 58.9199983 10.6450031 58.6600009 10.035 58.48 9.42499695 58.2999991 8.7700035 58.21 8.07 58.21 7.1099952 58.21 6.2600037 58.4049981 5.52 58.795 4.7799963 59.185002 4.1600025 59.7049967 3.66 60.355 3.1599975 61.0050033 2.7800013 61.7449959 2.52 62.575 2.2599987 63.4050041 2.13 64.2599956 2.13 65.14 2.13 66.1800052 2.2499988 67.1399956 2.49 68.02 2.7300012 68.9000044 3.0999975 69.6649968 3.6 70.315 4.1000025 70.9650032 4.7199963 71.4699982 5.46 71.83 6.2000037 72.1900018 7.069995 72.37 8.07 72.37 8.7900036 72.37 9.45499695 72.2500012 10.065 72.01 10.6750031 71.7699988 11.2149977 71.4400021 11.685 71.02 12.1550024 70.5999979 12.5399985 70.095003 12.84 69.505 13.1400015 68.914997 13.3399995 68.2700035 13.44 67.57L14.58 67.57C14.4599994 68.4900046 14.2100019 69.3099964 13.83 70.03 13.4499981 70.7500036 12.9700029 71.3549976 12.39 71.845 11.8099971 72.3350024 11.1500037 72.7099987 10.41 72.97 9.6699963 73.2300013 8.8900041 73.36 8.07 73.36 6.8099937 73.36 5.73500445 73.1350022 4.845 72.685 3.95499555 72.2349977 3.22500285 71.6300038 2.655 70.87 2.08499715 70.1099962 1.66500135 69.235005 1.395 68.245 1.12499865 67.2549951.99 66.2200054.99 65.14.99 64.0599946 1.14499845 63.0400048 1.455 62.08 1.76500155 61.1199952 2.219997 60.2800036 2.82 59.56 3.420003 58.8399964 4.1599956 58.2700021 5.04 57.85 5.9200044 57.4299979 6.9299943 57.22 8.07 57.22 8.9100042 57.22 9.69499635 57.324999 10.425 57.535 11.1550037 57.745001 11.8049972 58.0599979 12.375 58.48 12.9450029 58.9000021 13.4099982 59.4349967 13.77 60.085 14.1300018 60.7350033 14.3499996 61.4899957 14.43 62.35L13.29 62.35zM28.32 59.14L28.29 59.14 18.66 73 17.25 73 17.25 57.58 18.39 57.58 18.39 71.5 18.42 71.5 28.02 57.58 29.46 57.58 29.46 73 28.32 73 28.32 59.14zM44.43 62.35C44.3699997 61.6699966 44.1950015 61.0700026 43.905 60.55 43.6149985 60.0299974 43.2400023 59.6000017 42.78 59.26 42.3199977 58.9199983 41.7850031 58.6600009 41.175 58.48 40.5649969 58.2999991 39.9100035 58.21 39.21 58.21 38.2499952 58.21 37.4000037 58.4049981 36.66 58.795 35.9199963 59.185002 35.3000025 59.7049967 34.8 60.355 34.2999975 61.0050033 33.9200013 61.7449959 33.66 62.575 33.3999987 63.4050041 33.27 64.2599956 33.27 65.14 33.27 66.1800052 33.3899988 67.1399956 33.63 68.02 33.8700012 68.9000044 34.2399975 69.6649968 34.74 70.315 35.2400025 70.9650032 35.8599963 71.4699982 36.6 71.83 37.3400037 72.1900018 38.209995 72.37 39.21 72.37 39.9300036 72.37 40.5949969 72.2500012 41.205 72.01 41.8150031 71.7699988 42.3549977 71.4400021 42.825 71.02 43.2950024 70.5999979 43.6799985 70.095003 43.98 69.505 44.2800015 68.914997 44.4799995 68.2700035 44.58 67.57L45.72 67.57C45.5999994 68.4900046 45.3500019 69.3099964 44.97 70.03 44.5899981 70.7500036 44.1100029 71.3549976 43.53 71.845 42.9499971 72.3350024 42.2900037 72.7099987 41.55 72.97 40.8099963 73.2300013 40.0300041 73.36 39.21 73.36 37.9499937 73.36 36.8750045 73.1350022 35.985 72.685 35.0949956 72.2349977 34.3650028 71.6300038 33.795 70.87 33.2249972 70.1099962 32.8050014 69.235005 32.535 68.245 32.2649987 67.2549951 32.13 66.2200054 32.13 65.14 32.13 64.0599946 32.2849985 63.0400048 32.595 62.08 32.9050016 61.1199952 33.359997 60.2800036 33.96 59.56 34.560003 58.8399964 35.2999956 58.2700021 36.18 57.85 37.0600044 57.4299979 38.0699943 57.22 39.21 57.22 40.0500042 57.22 40.8349963 57.324999 41.565 57.535 42.2950036 57.745001 42.9449972 58.0599979 43.515 58.48 44.0850028 58.9000021 44.5499982 59.4349967 44.91 60.085 45.2700018 60.7350033 45.4899996 61.4899957 45.57 62.35L44.43 62.35zM53.94 73L52.8 73 52.8 58.57 46.95 58.57 46.95 57.58 59.79 57.58 59.79 58.57 53.94 58.57 53.94 73zM62.16 65.44L62.16 65.62C62.16 66.5200045 62.2799988 67.3799959 62.52 68.2 62.7600012 69.0200041 63.1149977 69.7399969 63.585 70.36 64.0550023 70.9800031 64.6449965 71.4699982 65.355 71.83 66.0650036 72.1900018 66.8899953 72.37 67.83 72.37 69.3700077 72.37 70.5899955 71.9650041 71.49 71.155 72.3900045 70.3449959 73.0099983 69.2200072 73.35 67.78L74.49 67.78C74.1499983 69.580009 73.4150057 70.9599952 72.285 71.92 71.1549944 72.8800048 69.6600093 73.36 67.8 73.36 66.6599943 73.36 65.6650043 73.1550021 64.815 72.745 63.9649958 72.334998 63.2550029 71.7750036 62.685 71.065 62.1149972 70.3549965 61.6900014 69.5150048 61.41 68.545 61.1299986 67.5749952 60.99 66.5300056 60.99 65.41 60.99 64.3299946 61.1349986 63.2950049 61.425 62.305 61.7150015 61.314995 62.1499971 60.4450037 62.73 59.695 63.3100029 58.9449963 64.0349957 58.3450023 64.905 57.895 65.7750044 57.4449977 66.7999941 57.22 67.98 57.22 69.0600054 57.22 70.0149959 57.419998 70.845 57.82 71.6750042 58.220002 72.3699972 58.7649965 72.93 59.455 73.4900028 60.1450035 73.9149986 60.9449954 74.205 61.855 74.4950015 62.7650046 74.64 63.7399948 74.64 64.78 74.64 64.8800005 74.6350001 64.9949994 74.625 65.125 74.615 65.2550006 74.61 65.3599996 74.61 65.44L62.16 65.44zM73.47 64.45C73.4299998 63.6099958 73.2900012 62.8150038 73.05 62.065 72.8099988 61.3149963 72.4550024 60.6550029 71.985 60.085 71.5149977 59.5149971 70.9450034 59.0600017 70.275 58.72 69.6049967 58.3799983 68.8400043 58.21 67.98 58.21 67.0599954 58.21 66.2500035 58.3849983 65.55 58.735 64.8499965 59.0850017 64.2600024 59.5449972 63.78 60.115 63.2999976 60.6850029 62.9300013 61.3499962 62.67 62.11 62.4099987 62.8700038 62.2500003 63.649996 62.19 64.45L73.47 64.45zM78.42 73L77.28 73 77.28 57.58 79.14 57.58 85.05 71.59 90.96 57.58 92.82 57.58 92.82 73 91.68 73 91.68 58.66 91.62 58.66 85.68 73 84.42 73 78.48 58.66 78.42 58.66 78.42 73zM106.41 69.94L106.35 69.94C106.169999 70.4000023 105.910002 70.834998 105.57 71.245 105.229998 71.6550021 104.815002 72.0199984 104.325 72.34 103.834998 72.6600016 103.280003 72.9099991 102.66 73.09 102.039997 73.2700009 101.360004 73.36 100.62 73.36 98.9799918 73.36 97.7100045 73.0050035 96.81 72.295 95.9099955 71.5849965 95.46 70.4900074 95.46 69.01 95.46 68.1099955 95.6399982 67.3750029 96 66.805 96.3600018 66.2349971 96.8149973 65.7850016 97.365 65.455 97.9150028 65.1249983 98.5249967 64.8900007 99.195 64.75 99.8650034 64.6099993 100.509997 64.5100003 101.13 64.45L102.9 64.3C103.720004 64.2399997 104.364998 64.1450007 104.835 64.015 105.305002 63.8849994 105.659999 63.7050012 105.9 63.475 106.140001 63.2449989 106.29 62.9500018 106.35 62.59 106.41 62.2299982 106.44 61.7800027 106.44 61.24 106.44 60.8199979 106.360001 60.4300018 106.2 60.07 106.039999 59.7099982 105.790002 59.3900014 105.45 59.11 105.109998 58.8299986 104.670003 58.6100008 104.13 58.45 103.589997 58.2899992 102.930004 58.21 102.15 58.21 100.769993 58.21 99.6550043 58.5499966 98.805 59.23 97.9549958 59.9100034 97.4900004 60.9399931 97.41 62.32L96.27 62.32C96.3500004 60.6199915 96.894995 59.3450043 97.905 58.495 98.9150051 57.6449957 100.349991 57.22 102.21 57.22 104.070009 57.22 105.424996 57.5849963 106.275 58.315 107.125004 59.0450036 107.55 59.9999941 107.55 61.18L107.55 70.15C107.55 70.3700011 107.555 70.5899989 107.565 70.81 107.575 71.0300011 107.61 71.2299991 107.67 71.41 107.73 71.5900009 107.829999 71.7349995 107.97 71.845 108.110001 71.9550005 108.309999 72.01 108.57 72.01 108.770001 72.01 109.049998 71.9800003 109.41 71.92L109.41 72.88C109.109999 72.9600004 108.800002 73 108.48 73 108.019998 73 107.655001 72.9400006 107.385 72.82 107.114999 72.6999994 106.910001 72.540001 106.77 72.34 106.629999 72.139999 106.535 71.9050013 106.485 71.635 106.435 71.3649987 106.41 71.0700016 106.41 70.75L106.41 69.94zM106.41 64.24C106.129999 64.5800017 105.705003 64.8099994 105.135 64.93 104.564997 65.0500006 103.930004 65.1399997 103.23 65.2L101.31 65.38C100.749997 65.4400003 100.190003 65.5249994 99.63 65.635 99.0699972 65.7450006 98.5650023 65.9299987 98.115 66.19 97.6649978 66.4500013 97.3000014 66.8049977 97.02 67.255 96.7399986 67.7050023 96.6 68.2899964 96.6 69.01 96.6 70.1500057 96.9599964 70.9949972 97.68 71.545 98.4000036 72.0950027 99.3899937 72.37 100.65 72.37 101.950007 72.37 102.979996 72.1350024 103.74 71.665 104.500004 71.1949977 105.079998 70.6550031 105.48 70.045 105.880002 69.4349969 106.134999 68.8450029 106.245 68.275 106.355001 67.7049971 106.41 67.320001 106.41 67.12L106.41 64.24zM130.47 61.33C130.47 62.2500046 130.165003 63.0149969 129.555 63.625 128.944997 64.2350031 128.150005 64.6199992 127.17 64.78L127.17 64.81C128.330006 64.9500007 129.234997 65.319997 129.885 65.92 130.535003 66.520003 130.86 67.3899943 130.86 68.53 130.86 69.330004 130.695002 70.029997 130.365 70.63 130.034998 71.230003 129.595003 71.734998 129.045 72.145 128.494997 72.555002 127.865004 72.859999 127.155 73.06 126.444996 73.260001 125.700004 73.36 124.92 73.36 122.97999 73.36 121.455006 72.9150044 120.345 72.025 119.234994 71.1349955 118.68 69.7300096 118.68 67.81L119.82 67.81C119.82 69.3700078 120.264996 70.5199963 121.155 71.26 122.045004 72.0000037 123.299992 72.37 124.92 72.37 125.500003 72.37 126.079997 72.2900008 126.66 72.13 127.240003 71.9699992 127.754998 71.7350015 128.205 71.425 128.655002 71.1149985 129.019999 70.7200024 129.3 70.24 129.580001 69.7599976 129.72 69.1900033 129.72 68.53 129.72 67.3899943 129.305004 66.5750024 128.475 66.085 127.644996 65.5949976 126.490007 65.35 125.01 65.35L123.33 65.35 123.33 64.33 124.71 64.33C125.250003 64.33 125.794997 64.2850004 126.345 64.195 126.895003 64.1049996 127.389998 63.9500011 127.83 63.73 128.270002 63.5099989 128.629999 63.2050019 128.91 62.815 129.190001 62.424998 129.33 61.930003 129.33 61.33 129.33 60.3099949 128.940004 59.5350027 128.16 59.005 127.379996 58.4749974 126.360006 58.21 125.1 58.21 123.679993 58.21 122.545004 58.5049971 121.695 59.095 120.844996 59.6850029 120.360001 60.6899929 120.24 62.11L119.1 62.11C119.14 60.4699918 119.709994 59.245004 120.81 58.435 121.910006 57.6249959 123.349991 57.22 125.13 57.22 125.910004 57.22 126.624997 57.3049992 127.275 57.475 127.925003 57.6450009 128.484998 57.8999983 128.955 58.24 129.425002 58.5800017 129.794999 59.0099974 130.065 59.53 130.335001 60.0500026 130.47 60.6499966 130.47 61.33L130.47 61.33zM143.85 69.94L143.79 69.94C143.609999 70.4000023 143.350002 70.834998 143.01 71.245 142.669998 71.6550021 142.255002 72.0199984 141.765 72.34 141.274998 72.6600016 140.720003 72.9099991 140.1 73.09 139.479997 73.2700009 138.800004 73.36 138.06 73.36 136.419992 73.36 135.150004 73.0050035 134.25 72.295 133.349996 71.5849965 132.9 70.4900074 132.9 69.01 132.9 68.1099955 133.079998 67.3750029 133.44 66.805 133.800002 66.2349971 134.254997 65.7850016 134.805 65.455 135.355003 65.1249983 135.964997 64.8900007 136.635 64.75 137.305003 64.6099993 137.949997 64.5100003 138.57 64.45L140.34 64.3C141.160004 64.2399997 141.804998 64.1450007 142.275 64.015 142.745002 63.8849994 143.099999 63.7050012 143.34 63.475 143.580001 63.2449989 143.73 62.9500018 143.79 62.59 143.85 62.2299982 143.88 61.7800027 143.88 61.24 143.88 60.8199979 143.800001 60.4300018 143.64 60.07 143.479999 59.7099982 143.230002 59.3900014 142.89 59.11 142.549998 58.8299986 142.110003 58.6100008 141.57 58.45 141.029997 58.2899992 140.370004 58.21 139.59 58.21 138.209993 58.21 137.095004 58.5499966 136.245 59.23 135.394996 59.9100034 134.93 60.9399931 134.85 62.32L133.71 62.32C133.79 60.6199915 134.334995 59.3450043 135.345 58.495 136.355005 57.6449957 137.789991 57.22 139.65 57.22 141.510009 57.22 142.864996 57.5849963 143.715 58.315 144.565004 59.0450036 144.99 59.9999941 144.99 61.18L144.99 70.15C144.99 70.3700011 144.995 70.5899989 145.005 70.81 145.015 71.0300011 145.05 71.2299991 145.11 71.41 145.17 71.5900009 145.269999 71.7349995 145.41 71.845 145.550001 71.9550005 145.749999 72.01 146.01 72.01 146.210001 72.01 146.489998 71.9800003 146.85 71.92L146.85 72.88C146.549999 72.9600004 146.240002 73 145.92 73 145.459998 73 145.095001 72.9400006 144.825 72.82 144.554999 72.6999994 144.350001 72.540001 144.21 72.34 144.069999 72.139999 143.975 71.9050013 143.925 71.635 143.875 71.3649987 143.85 71.0700016 143.85 70.75L143.85 69.94zM143.85 64.24C143.569999 64.5800017 143.145003 64.8099994 142.575 64.93 142.004997 65.0500006 141.370003 65.1399997 140.67 65.2L138.75 65.38C138.189997 65.4400003 137.630003 65.5249994 137.07 65.635 136.509997 65.7450006 136.005002 65.9299987 135.555 66.19 135.104998 66.4500013 134.740001 66.8049977 134.46 67.255 134.179999 67.7050023 134.04 68.2899964 134.04 69.01 134.04 70.1500057 134.399996 70.9949972 135.12 71.545 135.840004 72.0950027 136.829994 72.37 138.09 72.37 139.390006 72.37 140.419996 72.1350024 141.18 71.665 141.940004 71.1949977 142.519998 70.6550031 142.92 70.045 143.320002 69.4349969 143.574999 68.8450029 143.685 68.275 143.795001 67.7049971 143.85 67.320001 143.85 67.12L143.85 64.24zM148.38 73L146.94 73 152.1 66.31C151.559997 66.2499997 151.045002 66.1150011 150.555 65.905 150.064998 65.6949989 149.640002 65.4150018 149.28 65.065 148.919998 64.7149983 148.635001 64.2850026 148.425 63.775 148.214999 63.2649974 148.11 62.6700034 148.11 61.99 148.11 60.6699934 148.539996 59.605004 149.4 58.795 150.260004 57.9849959 151.439993 57.58 152.94 57.58L159.9 57.58 159.9 73 158.76 73 158.76 66.34 153.42 66.34 148.38 73zM158.76 58.57L153.06 58.57C151.839994 58.57 150.905003 58.8849969 150.255 59.515 149.604997 60.1450032 149.28 60.9699949 149.28 61.99 149.28 63.0700054 149.604997 63.8999971 150.255 64.48 150.905003 65.0600029 151.799994 65.35 152.94 65.35L158.76 65.35 158.76 58.57zM163.29 73L163.29 57.58 170.37 57.58C171.890008 57.58 173.049996 57.9149966 173.85 58.585 174.650004 59.2550033 175.05 60.1799941 175.05 61.36 175.05 62.3200048 174.790003 63.0799972 174.27 63.64 173.749997 64.2000028 173.060004 64.5699991 172.2 64.75L172.2 64.81C173.260005 65.010001 174.094997 65.4249968 174.705 66.055 175.315003 66.6850032 175.62 67.5699943 175.62 68.71 175.62 70.0900069 175.145005 71.1499963 174.195 71.89 173.244995 72.6300037 171.920008 73 170.22 73L163.29 73zM164.43 58.57L164.43 64.36 170.25 64.36C171.390006 64.36 172.284997 64.1100025 172.935 63.61 173.585003 63.1099975 173.91 62.4100045 173.91 61.51 173.91 60.5499952 173.595003 59.8200025 172.965 59.32 172.334997 58.8199975 171.440006 58.57 170.28 58.57L164.43 58.57zM170.19 72.01C171.570007 72.01 172.629996 71.7250028 173.37 71.155 174.110004 70.5849971 174.48 69.7600054 174.48 68.68 174.48 67.6599949 174.130003 66.850003 173.43 66.25 172.729996 65.649997 171.690007 65.35 170.31 65.35L164.43 65.35 164.43 72.01 170.19 72.01zM177.54 65.29C177.54 64.1899945 177.694998 63.1550048 178.005 62.185 178.315002 61.2149951 178.769997 60.3600037 179.37 59.62 179.970003 58.8799963 180.709996 58.2950022 181.59 57.865 182.470004 57.4349979 183.479994 57.22 184.62 57.22 185.760006 57.22 186.769996 57.4349979 187.65 57.865 188.530004 58.2950022 189.269997 58.8799963 189.87 59.62 190.470003 60.3600037 190.924998 61.2149951 191.235 62.185 191.545002 63.1550048 191.7 64.1899945 191.7 65.29 191.7 66.3900055 191.545002 67.4299951 191.235 68.41 190.924998 69.3900049 190.470003 70.2449964 189.87 70.975 189.269997 71.7050037 188.530004 72.2849978 187.65 72.715 186.769996 73.1450021 185.760006 73.36 184.62 73.36 183.479994 73.36 182.470004 73.1450021 181.59 72.715 180.709996 72.2849978 179.970003 71.7050037 179.37 70.975 178.769997 70.2449964 178.315002 69.3900049 178.005 68.41 177.694998 67.4299951 177.54 66.3900055 177.54 65.29L177.54 65.29zM178.68 65.29C178.68 66.2100046 178.809999 67.0949958 179.07 67.945 179.330001 68.7950043 179.709997 69.5499967 180.21 70.21 180.710002 70.8700033 181.329996 71.394998 182.07 71.785 182.810004 72.1750019 183.659995 72.37 184.62 72.37 185.580005 72.37 186.429996 72.1750019 187.17 71.785 187.910004 71.394998 188.529997 70.8700033 189.03 70.21 189.530002 69.5499967 189.909999 68.7950043 190.17 67.945 190.430001 67.0949958 190.56 66.2100046 190.56 65.29 190.56 64.3699954 190.430001 63.4850043 190.17 62.635 189.909999 61.7849958 189.530002 61.0300033 189.03 60.37 188.529997 59.7099967 187.910004 59.185002 187.17 58.795 186.429996 58.4049981 185.580005 58.21 184.62 58.21 183.659995 58.21 182.810004 58.4049981 182.07 58.795 181.329996 59.185002 180.710002 59.7099967 180.21 60.37 179.709997 61.0300033 179.330001 61.7849958 179.07 62.635 178.809999 63.4850043 178.68 64.3699954 178.68 65.29L178.68 65.29zM194.43 57.58L195.57 57.58 195.57 66.01 205.08 57.58 206.73 57.58 199.98 63.58 207.21 73 205.65 73 199.08 64.45 195.57 67.42 195.57 73 194.43 73 194.43 57.58z"/>
    </g>
  </g>
</svg>
