<svg xmlns="http://www.w3.org/2000/svg" width="522" height="152" viewBox="0 0 522 152">
  <g fill="none" fill-rule="evenodd" transform="translate(-21 -20)">
    <g fill="#0069FF" transform="translate(1 17.85)">
      <path d="M76.0542315,20.7589825 C78.5259774,15.8154907 82.5307949,15.8101419 85.0052153,20.7589825 L139.70064,130.149833 C142.172386,135.093325 139.701745,139.100816 134.174405,139.100816 L26.8850423,139.100816 C21.3612406,139.100816 18.8843861,135.098673 21.3588064,130.149833 L76.0542315,20.7589825 Z" opacity=".25" transform="scale(1 -1) rotate(-70 -30.973 0)"/>
      <path d="M73.9328913,20.6497671 C76.4046372,15.7062753 80.4094547,15.7009264 82.8838751,20.6497671 L137.5793,130.040617 C140.051046,134.984109 137.580405,138.991601 132.053064,138.991601 L24.7637021,138.991601 C19.2399004,138.991601 16.7630459,134.989458 19.2374662,130.040617 L73.9328913,20.6497671 Z" opacity=".5" transform="scale(-1 1) rotate(70 0 -34.012)"/>
      <path d="M110.308782,20.7043566 C112.780528,15.7608648 116.785345,15.7555159 119.259766,20.7043566 L173.955191,130.095207 C176.426937,135.038699 173.956296,139.046191 168.428955,139.046191 L61.1395928,139.046191 C55.6157911,139.046191 53.1389366,135.044047 55.6133569,130.095207 L110.308782,20.7043566 Z" transform="rotate(90 114.784 78.02)"/>
    </g>
    <g transform="translate(212 24)">
      <path fill="#0069FF" d="M265.882,11.162 L265.882,3.444 L272.342,3.444 C273.04467,3.444 273.707664,3.48366627 274.331,3.563 C274.954336,3.64233373 275.503998,3.81799864 275.98,4.09 C276.456002,4.36200136 276.829999,4.74733084 277.102,5.246 C277.374001,5.74466916 277.51,6.42466236 277.51,7.286 C277.51,8.57800646 277.107671,9.54699677 276.303,10.193 C275.498329,10.8390032 274.178009,11.162 272.342,11.162 L265.882,11.162 Z M262.652,0.724 L262.652,25 L274.382,25 C275.583339,25 276.642995,24.8016686 277.561,24.405 C278.479005,24.0083313 279.249664,23.4870032 279.873,22.841 C280.496336,22.1949968 280.966665,21.4526709 281.284,20.614 C281.601335,19.7753291 281.76,18.9140044 281.76,18.03 C281.76,16.5339925 281.363337,15.2646719 280.57,14.222 C279.776663,13.1793281 278.632007,12.4993349 277.136,12.182 L277.136,12.114 C278.292006,11.6606644 279.181664,10.9636714 279.805,10.023 C280.428336,9.08232863 280.74,7.96600646 280.74,6.674 C280.74,5.44999388 280.462336,4.41867086 279.907,3.58 C279.351664,2.74132914 278.677337,2.08400238 277.884,1.608 C277.521332,1.3813322 277.085003,1.2113339 276.575,1.098 C276.064997,0.9846661 275.515336,0.89966695 274.926,0.843 C274.336664,0.78633305 273.74167,0.75233339 273.141,0.741 C272.54033,0.72966661 271.979336,0.724 271.458,0.724 L262.652,0.724 Z M265.882,22.28 L265.882,13.882 L273.26,13.882 C273.940003,13.882 274.59733,13.9443327 275.232,14.069 C275.86667,14.1936673 276.427664,14.4089985 276.915,14.715 C277.402336,15.0210015 277.793332,15.4346641 278.088,15.956 C278.382668,16.4773359 278.53,17.1346627 278.53,17.928 C278.53,19.2880068 278.127671,20.3533295 277.323,21.124 C276.518329,21.8946705 275.402007,22.28 273.974,22.28 L265.882,22.28 Z M297.672,14.528 L287.574,14.528 C287.619334,13.8479966 287.766665,13.2076697 288.016,12.607 C288.265335,12.0063303 288.605331,11.4793356 289.036,11.026 C289.466669,10.5726644 289.98233,10.215668 290.583,9.955 C291.18367,9.69433203 291.857996,9.564 292.606,9.564 C293.331337,9.564 293.99433,9.69433203 294.595,9.955 C295.19567,10.215668 295.716998,10.5669978 296.159,11.009 C296.601002,11.4510022 296.952332,11.9779969 297.213,12.59 C297.473668,13.2020031 297.626666,13.8479966 297.672,14.528 Z M300.46,19.424 L297.604,19.424 C297.354665,20.5800058 296.839004,21.4413305 296.057,22.008 C295.274996,22.5746695 294.272006,22.858 293.048,22.858 C292.095995,22.858 291.26867,22.6993349 290.566,22.382 C289.86333,22.0646651 289.285336,21.6396693 288.832,21.107 C288.378664,20.5743307 288.050001,19.9623368 287.846,19.271 C287.641999,18.5796632 287.551333,17.8486705 287.574,17.078 L300.732,17.078 C300.777334,16.0126613 300.681001,14.8906726 300.443,13.712 C300.204999,12.5333274 299.774336,11.4453383 299.151,10.448 C298.527664,9.45066168 297.700338,8.62900323 296.669,7.983 C295.637662,7.33699677 294.340008,7.014 292.776,7.014 C291.574661,7.014 290.469672,7.2406644 289.461,7.694 C288.452328,8.1473356 287.57967,8.78199592 286.843,9.598 C286.10633,10.4140041 285.534002,11.3773278 285.126,12.488 C284.717998,13.5986722 284.514,14.82266 284.514,16.16 C284.559334,17.49734 284.757665,18.732661 285.109,19.866 C285.460335,20.999339 285.98733,21.9739959 286.69,22.79 C287.39267,23.6060041 288.259662,24.2406644 289.291,24.694 C290.322338,25.1473356 291.54066,25.374 292.946,25.374 C294.940677,25.374 296.595327,24.8753383 297.91,23.878 C299.224673,22.8806617 300.074665,21.3960099 300.46,19.424 Z M307.736,7.422 L307.736,2.152 L304.846,2.152 L304.846,7.422 L301.854,7.422 L301.854,9.972 L304.846,9.972 L304.846,21.158 C304.846,21.9740041 304.925333,22.6313308 305.084,23.13 C305.242667,23.6286692 305.486332,24.0139986 305.815,24.286 C306.143668,24.5580014 306.574331,24.7449995 307.107,24.847 C307.639669,24.9490005 308.279996,25 309.028,25 L311.238,25 L311.238,22.45 L309.912,22.45 C309.458664,22.45 309.090335,22.4330002 308.807,22.399 C308.523665,22.3649998 308.302667,22.2913339 308.144,22.178 C307.985333,22.0646661 307.877667,21.906001 307.821,21.702 C307.764333,21.497999 307.736,21.2260017 307.736,20.886 L307.736,9.972 L311.238,9.972 L311.238,7.422 L307.736,7.422 Z M330.006,24.932 C329.507331,25.2266681 328.816004,25.374 327.932,25.374 C327.183996,25.374 326.589002,25.1643354 326.147,24.745 C325.704998,24.3256646 325.484,23.6400048 325.484,22.688 C324.690663,23.6400048 323.767005,24.3256646 322.713,24.745 C321.658995,25.1643354 320.520006,25.374 319.296,25.374 C318.502663,25.374 317.749004,25.2833342 317.035,25.102 C316.320996,24.9206658 315.703336,24.6373353 315.182,24.252 C314.660664,23.8666647 314.247002,23.3623365 313.941,22.739 C313.634998,22.1156636 313.482,21.3620044 313.482,20.478 C313.482,19.4806617 313.651998,18.6646698 313.992,18.03 C314.332002,17.3953302 314.779664,16.8796686 315.335,16.483 C315.890336,16.0863313 316.524996,15.786001 317.239,15.582 C317.953004,15.377999 318.683996,15.2080007 319.432,15.072 C320.225337,14.9133325 320.978996,14.7943337 321.693,14.715 C322.407004,14.6356663 323.035997,14.5223341 323.58,14.375 C324.124003,14.2276659 324.554665,14.0123348 324.872,13.729 C325.189335,13.4456652 325.348,13.0320027 325.348,12.488 C325.348,11.8533302 325.229001,11.3433353 324.991,10.958 C324.752999,10.5726647 324.447002,10.278001 324.073,10.074 C323.698998,9.86999898 323.279669,9.73400034 322.815,9.666 C322.350331,9.59799966 321.891336,9.564 321.438,9.564 C320.213994,9.564 319.194004,9.79633101 318.378,10.261 C317.561996,10.725669 317.12,11.6039935 317.052,12.896 L314.162,12.896 C314.207334,11.8079946 314.433998,10.8900037 314.842,10.142 C315.250002,9.39399626 315.793997,8.78766899 316.474,8.323 C317.154003,7.85833101 317.930329,7.52400102 318.803,7.32 C319.675671,7.11599898 320.610662,7.014 321.608,7.014 C322.401337,7.014 323.188996,7.0706661 323.971,7.184 C324.753004,7.2973339 325.46133,7.52966491 326.096,7.881 C326.73067,8.23233509 327.240665,8.72533016 327.626,9.36 C328.011335,9.99466984 328.204,10.8219949 328.204,11.842 L328.204,20.886 C328.204,21.5660034 328.243666,22.0646651 328.323,22.382 C328.402334,22.6993349 328.668664,22.858 329.122,22.858 C329.371335,22.858 329.665998,22.8013339 330.006,22.688 L330.006,24.932 Z M325.314,15.922 C324.951332,16.1940014 324.475336,16.3923327 323.886,16.517 C323.296664,16.6416673 322.679003,16.7436663 322.033,16.823 C321.386997,16.9023337 320.735337,16.9929995 320.078,17.095 C319.420663,17.1970005 318.831336,17.3613322 318.31,17.588 C317.788664,17.8146678 317.363668,18.1376646 317.035,18.557 C316.706332,18.9763354 316.542,19.548663 316.542,20.274 C316.542,20.7500024 316.638332,21.1523317 316.831,21.481 C317.023668,21.8096683 317.272998,22.075999 317.579,22.28 C317.885002,22.484001 318.241998,22.6313329 318.65,22.722 C319.058002,22.8126671 319.488664,22.858 319.942,22.858 C320.894005,22.858 321.709997,22.727668 322.39,22.467 C323.070003,22.206332 323.625331,21.8776687 324.056,21.481 C324.486669,21.0843313 324.803999,20.653669 325.008,20.189 C325.212001,19.724331 325.314,19.288002 325.314,18.88 L325.314,15.922 Z"/>
      <path fill="#343B4D" d="M16.224,63.016 C16.224,67.48 14.208,69.832 10.416,69.832 C6.96,69.832 5.52,67.816 4.848,65.944 C4.464,64.984 3.696,64.648 2.88,64.648 C2.496,64.648 2.112,64.744 1.776,64.84 C0.912,65.128 0.192,65.944 0.192,66.952 C0.192,67.24 0.24,67.48 0.336,67.768 C0.912,69.208 1.872,70.792 3.552,72.04 C5.136,73.192 7.392,74.008 10.464,74.008 C17.04,74.008 20.832,70.36 20.832,63.448 L20.832,37.624 C20.832,36.28 19.872,35.656 18.624,35.656 C17.232,35.656 16.224,36.28 16.224,37.624 L16.224,63.016 Z M48.7320001,60.856 C50.2200001,60.856 51.1320001,59.944 51.1320001,58.216 L51.1320001,57.832 C50.6520001,51.544 46.7160001,46.072 39.7080001,46.072 C31.8840001,46.072 27.5640001,51.88 27.5640001,60.184 C27.5640001,68.488 32.1240001,74.056 39.9960001,74.056 C46.2360001,74.056 49.0200001,70.888 50.5560001,67.72 C50.7480001,67.432 50.7960001,67.144 50.7960001,66.856 C50.7960001,65.992 50.1240001,65.416 49.3080001,65.176 C48.9720001,65.08 48.6360001,64.984 48.3000001,64.984 C47.6280001,64.984 47.0040001,65.32 46.5720001,66.184 C45.4200001,68.728 43.5000001,70.456 40.0440001,70.456 C34.8600001,70.456 31.9320001,66.76 31.8360001,60.856 L48.7320001,60.856 Z M31.9800001,57.352 C32.6040001,52.648 35.1000001,49.576 39.7080001,49.576 C44.1240001,49.576 46.1880001,53.08 46.7640001,56.488 L46.7640001,56.728 C46.7640001,57.16 46.5720001,57.352 46.0440001,57.352 L31.9800001,57.352 Z M59.4960003,46.744 L55.8000003,46.744 C54.6000003,46.744 54.0720003,47.56 54.0720003,48.664 C54.0720003,49.768 54.6000003,50.536 55.7520003,50.536 L59.4960003,50.536 L59.4960003,67 C59.4960003,72.04 62.3760003,74.008 66.3120003,74.008 C68.3760003,74.008 69.6720003,73.624 71.0640003,72.952 C71.7840003,72.568 72.0720003,71.896 72.0720003,71.224 C72.0720003,70.888 72.0240003,70.504 71.8800003,70.168 C71.5920003,69.448 71.0160003,68.92 70.2960003,68.92 C70.0080003,68.92 69.7200003,69.016 69.4320003,69.16 C68.6160003,69.64 67.8000003,69.976 66.6000003,69.976 C64.8240003,69.976 63.8160003,68.968 63.8160003,66.616 L63.8160003,50.536 L69.9600003,50.536 C71.1120003,50.536 71.7360003,49.768 71.7360003,48.664 C71.7360003,47.512 71.1600003,46.744 69.9600003,46.744 L63.8160003,46.744 L63.8160003,40.936 C63.8160003,39.688 62.9040003,39.016 61.6560003,39.016 C60.3120003,39.016 59.4960003,39.688 59.4960003,40.936 L59.4960003,46.744 Z M106.212,52.936 C107.508,49.672 109.86,42.808 110.772,39.736 C110.58,43 110.004,51.592 110.004,58.408 L110.004,71.704 C110.004,73 110.964,73.624 112.26,73.624 C113.508,73.624 114.468,73 114.468,71.704 L114.468,38.488 C114.468,36.76 113.22,35.656 111.444,35.656 C109.332,35.656 108.228,36.376 107.46,38.296 L98.7720004,60.28 C97.6680004,63.016 96.2280004,67.192 95.7480004,69.304 C95.3160004,67.24 93.7320004,62.728 92.7720004,60.376 L83.9400004,38.2 C83.2200004,36.424 82.2120004,35.656 80.1000004,35.656 C78.2760004,35.656 77.0280004,36.76 77.0280004,38.488 L77.0280004,71.704 C77.0280004,73 77.9400004,73.624 79.2360004,73.624 C80.5800004,73.624 81.4920004,73 81.4920004,71.704 L81.4920004,58.36 C81.4920004,51.592 80.9160004,42.904 80.7720004,39.784 C81.6840004,42.76 83.9880004,49.72 85.3800004,53.176 L92.6280004,71.368 C93.3000004,73.048 94.2120004,73.624 95.7000004,73.624 C97.2360004,73.624 98.1000004,73.048 98.7720004,71.416 L106.212,52.936 Z M122.400001,71.704 C122.400001,73 123.216001,73.624 124.560001,73.624 C125.856001,73.624 126.768001,73 126.768001,71.704 L126.768001,48.328 C126.768001,47.08 125.856001,46.456 124.560001,46.456 C123.216001,46.456 122.400001,47.08 122.400001,48.328 L122.400001,71.704 Z M124.608001,35.608 C122.784001,35.608 121.344001,37 121.344001,38.824 C121.344001,40.696 122.784001,42.088 124.608001,42.088 C126.384001,42.088 127.824001,40.696 127.824001,38.824 C127.824001,37 126.384001,35.608 124.608001,35.608 Z M140.508001,59.608 L132.492001,70.36 C132.204001,70.744 132.060001,71.128 132.060001,71.512 C132.060001,72.136 132.444001,72.712 132.924001,73.144 C133.356001,73.432 133.884001,73.624 134.412001,73.624 C134.940001,73.624 135.516001,73.384 135.948001,72.808 L143.148001,62.68 L150.300001,72.808 C150.684001,73.384 151.260001,73.624 151.836001,73.624 C152.316001,73.624 152.796001,73.432 153.228001,73.144 C153.804001,72.76 154.140001,72.136 154.140001,71.464 C154.140001,71.032 153.996001,70.6 153.708001,70.216 L145.836001,59.608 L153.180001,49.768 C153.468001,49.384 153.612001,49 153.612001,48.616 C153.612001,47.896 153.180001,47.224 152.604001,46.84 C152.172001,46.552 151.740001,46.408 151.260001,46.408 C150.684001,46.408 150.108001,46.648 149.676001,47.224 L143.148001,56.584 L136.380001,47.272 C135.948001,46.696 135.372001,46.456 134.796001,46.456 C134.364001,46.456 133.884001,46.6 133.452001,46.888 C132.828001,47.272 132.444001,47.944 132.444001,48.616 C132.444001,49 132.588001,49.384 132.876001,49.768 L140.508001,59.608 Z M186.276001,40.168 L186.276001,71.656 C186.276001,72.952 187.284001,73.624 188.580001,73.624 C189.876001,73.624 190.884001,72.952 190.884001,71.656 L190.884001,40.168 L201.780001,40.168 C202.884001,40.168 203.604001,39.208 203.604001,38.104 C203.604001,36.952 202.932001,35.944 201.780001,35.944 L175.332001,35.944 C174.180001,35.944 173.508001,36.952 173.508001,38.104 C173.508001,39.208 174.180001,40.168 175.380001,40.168 L186.276001,40.168 Z M238.368001,52.936 C239.664001,49.672 242.016001,42.808 242.928001,39.736 C242.736001,43 242.160001,51.592 242.160001,58.408 L242.160001,71.704 C242.160001,73 243.120001,73.624 244.416001,73.624 C245.664001,73.624 246.624001,73 246.624001,71.704 L246.624001,38.488 C246.624001,36.76 245.376001,35.656 243.600001,35.656 C241.488001,35.656 240.384001,36.376 239.616001,38.296 L230.928001,60.28 C229.824001,63.016 228.384001,67.192 227.904001,69.304 C227.472001,67.24 225.888001,62.728 224.928001,60.376 L216.096001,38.2 C215.376001,36.424 214.368001,35.656 212.256001,35.656 C210.432001,35.656 209.184001,36.76 209.184001,38.488 L209.184001,71.704 C209.184001,73 210.096001,73.624 211.392001,73.624 C212.736001,73.624 213.648001,73 213.648001,71.704 L213.648001,58.36 C213.648001,51.592 213.072001,42.904 212.928001,39.784 C213.840001,42.76 216.144001,49.72 217.536001,53.176 L224.784001,71.368 C225.456001,73.048 226.368001,73.624 227.856001,73.624 C229.392001,73.624 230.256001,73.048 230.928001,71.416 L238.368001,52.936 Z"/>
      <path fill="#343B4D" fill-opacity=".796" d="M9.452,108.476 C8.11465998,108.476 6.93033849,108.232336 5.899,107.745 C4.86766151,107.257664 4.00067018,106.594671 3.298,105.756 C2.59532982,104.917329 2.06266848,103.937006 1.7,102.815 C1.33733152,101.692994 1.156,100.49734 1.156,99.228 C1.156,97.9813271 1.33733152,96.791339 1.7,95.658 C2.06266848,94.524661 2.59532982,93.5386709 3.298,92.7 C4.00067018,91.8613291 4.86766151,91.1926692 5.899,90.694 C6.93033849,90.1953308 8.11465998,89.946 9.452,89.946 C11.3333427,89.946 12.9256602,90.4446617 14.229,91.442 C15.5323399,92.4393383 16.3086654,93.9466566 16.558,95.964 L14.416,95.964 C14.1213319,94.6493268 13.5773373,93.6180037 12.784,92.87 C11.9906627,92.1219963 10.8800071,91.748 9.452,91.748 C8.4319949,91.748 7.53667052,91.9633312 6.766,92.394 C5.99532948,92.8246688 5.35500255,93.3913298 4.845,94.094 C4.33499745,94.7966702 3.94966797,95.5956622 3.689,96.491 C3.42833203,97.3863378 3.298,98.298662 3.298,99.228 C3.298,100.157338 3.42833203,101.069662 3.689,101.965 C3.94966797,102.860338 4.33499745,103.65933 4.845,104.362 C5.35500255,105.06467 5.99532948,105.631331 6.766,106.062 C7.53667052,106.492669 8.4319949,106.708 9.452,106.708 C10.1093366,106.708 10.7326637,106.583335 11.322,106.334 C11.9113363,106.084665 12.4326644,105.739002 12.886,105.297 C13.3393356,104.854998 13.7133319,104.328003 14.008,103.716 C14.3026681,103.103997 14.4839997,102.435337 14.552,101.71 L16.694,101.71 C16.3993319,103.840677 15.6173397,105.500994 14.348,106.691 C13.0786603,107.881006 11.4466766,108.476 9.452,108.476 Z M19.652,90.456 L21.794,90.456 L21.794,105.484 L31.484,90.456 L34.136,90.456 L34.136,108 L31.994,108 L31.994,92.972 L22.304,108 L19.652,108 L19.652,90.456 Z M45.594,108.476 C44.25666,108.476 43.0723385,108.232336 42.041,107.745 C41.0096615,107.257664 40.1426702,106.594671 39.44,105.756 C38.7373298,104.917329 38.2046685,103.937006 37.842,102.815 C37.4793315,101.692994 37.298,100.49734 37.298,99.228 C37.298,97.9813271 37.4793315,96.791339 37.842,95.658 C38.2046685,94.524661 38.7373298,93.5386709 39.44,92.7 C40.1426702,91.8613291 41.0096615,91.1926692 42.041,90.694 C43.0723385,90.1953308 44.25666,89.946 45.594,89.946 C47.4753427,89.946 49.0676602,90.4446617 50.371,91.442 C51.6743399,92.4393383 52.4506654,93.9466566 52.7,95.964 L50.558,95.964 C50.2633319,94.6493268 49.7193373,93.6180037 48.926,92.87 C48.1326627,92.1219963 47.0220071,91.748 45.594,91.748 C44.5739949,91.748 43.6786705,91.9633312 42.908,92.394 C42.1373295,92.8246688 41.4970026,93.3913298 40.987,94.094 C40.4769975,94.7966702 40.091668,95.5956622 39.831,96.491 C39.570332,97.3863378 39.44,98.298662 39.44,99.228 C39.44,100.157338 39.570332,101.069662 39.831,101.965 C40.091668,102.860338 40.4769975,103.65933 40.987,104.362 C41.4970026,105.06467 42.1373295,105.631331 42.908,106.062 C43.6786705,106.492669 44.5739949,106.708 45.594,106.708 C46.2513366,106.708 46.8746637,106.583335 47.464,106.334 C48.0533363,106.084665 48.5746644,105.739002 49.028,105.297 C49.4813356,104.854998 49.8553319,104.328003 50.15,103.716 C50.4446681,103.103997 50.6259997,102.435337 50.694,101.71 L52.836,101.71 C52.5413319,103.840677 51.7593397,105.500994 50.49,106.691 C49.2206603,107.881006 47.5886766,108.476 45.594,108.476 Z M60.248,92.258 L53.754,92.258 L53.754,90.456 L68.884,90.456 L68.884,92.258 L62.39,92.258 L62.39,108 L60.248,108 L60.248,92.258 Z M77.928,108.476 C76.5226596,108.476 75.3213383,108.232336 74.324,107.745 C73.3266617,107.257664 72.5106698,106.589004 71.876,105.739 C71.2413302,104.888996 70.7710015,103.908672 70.465,102.798 C70.1589985,101.687328 70.006,100.49734 70.006,99.228 C70.006,98.0719942 70.1589985,96.9386722 70.465,95.828 C70.7710015,94.7173278 71.2413302,93.725671 71.876,92.853 C72.5106698,91.980329 73.3266617,91.2776693 74.324,90.745 C75.3213383,90.2123307 76.5226596,89.946 77.928,89.946 C79.3333404,89.946 80.5346617,90.2293305 81.532,90.796 C82.5293383,91.3626695 83.3396636,92.1049954 83.963,93.023 C84.5863365,93.9410046 85.0339986,94.9949941 85.306,96.185 C85.5780014,97.375006 85.6913336,98.5819939 85.646,99.806 L72.148,99.806 C72.148,100.599337 72.2556656,101.403996 72.471,102.22 C72.6863344,103.036004 73.0319976,103.772663 73.508,104.43 C73.9840024,105.087337 74.584663,105.631331 75.31,106.062 C76.035337,106.492669 76.9079949,106.708 77.928,106.708 C79.4920078,106.708 80.7159956,106.300004 81.6,105.484 C82.4840044,104.667996 83.0959983,103.580007 83.436,102.22 L85.578,102.22 C85.1246644,104.214677 84.2916727,105.755995 83.079,106.844 C81.8663273,107.932005 80.1493444,108.476 77.928,108.476 Z M83.504,98.004 C83.4813332,97.1879959 83.339668,96.4060037 83.079,95.658 C82.818332,94.9099963 82.4500024,94.2470029 81.974,93.669 C81.4979976,93.0909971 80.9200034,92.6263351 80.24,92.275 C79.5599966,91.9236649 78.7893376,91.748 77.928,91.748 C77.0439956,91.748 76.2620034,91.9236649 75.582,92.275 C74.9019966,92.6263351 74.3240024,93.0909971 73.848,93.669 C73.3719976,94.2470029 72.9923348,94.9156629 72.709,95.675 C72.4256653,96.4343371 72.2386671,97.2106627 72.148,98.004 L83.504,98.004 Z M88.502,90.456 L91.358,90.456 L97.886,105.586 L104.346,90.456 L107.202,90.456 L107.202,108 L105.06,108 L105.06,93.55 L104.958,93.55 L98.804,108 L96.9,108 L90.746,93.55 L90.644,93.55 L90.644,108 L88.502,108 L88.502,90.456 Z M116.178,108.476 C115.361996,108.476 114.597004,108.379668 113.883,108.187 C113.168996,107.994332 112.545669,107.688335 112.013,107.269 C111.480331,106.849665 111.061002,106.317003 110.755,105.671 C110.448998,105.024997 110.296,104.260004 110.296,103.376 C110.296,102.151994 110.567997,101.194337 111.112,100.503 C111.656003,99.8116632 112.375662,99.2846685 113.271,98.922 C114.166338,98.5593315 115.174994,98.3043341 116.297,98.157 C117.419006,98.0096659 118.557994,97.8680007 119.714,97.732 C120.144669,97.6866664 120.535665,97.6300003 120.887,97.562 C121.238335,97.4939997 121.527332,97.3750008 121.754,97.205 C121.980668,97.0349992 122.156333,96.8026681 122.281,96.508 C122.405667,96.2133319 122.468,95.8280024 122.468,95.352 C122.468,94.626663 122.349001,94.031669 122.111,93.567 C121.872999,93.102331 121.544335,92.7340014 121.125,92.462 C120.705665,92.1899986 120.218336,92.0030005 119.663,91.901 C119.107664,91.7989995 118.51267,91.748 117.878,91.748 C116.517993,91.748 115.407338,92.0709968 114.546,92.717 C113.684662,93.3630032 113.231334,94.3999929 113.186,95.828 L111.044,95.828 C111.180001,93.765323 111.888327,92.269338 113.169,91.34 C114.449673,90.410662 116.10999,89.946 118.15,89.946 C118.920671,89.946 119.691329,90.0196659 120.462,90.167 C121.232671,90.3143341 121.923997,90.591998 122.536,91 C123.148003,91.408002 123.646665,91.9803297 124.032,92.717 C124.417335,93.4536703 124.61,94.4113274 124.61,95.59 L124.61,104.906 C124.61,105.767338 125.029329,106.198 125.868,106.198 C126.140001,106.198 126.366666,106.152667 126.548,106.062 L126.548,107.864 C126.298665,107.909334 126.077668,107.943333 125.885,107.966 C125.692332,107.988667 125.448668,108 125.154,108 C124.609997,108 124.173668,107.926334 123.845,107.779 C123.516332,107.631666 123.261334,107.422001 123.08,107.15 C122.898666,106.877999 122.779667,106.555002 122.723,106.181 C122.666333,105.806998 122.638,105.393336 122.638,104.94 L122.57,104.94 C122.184665,105.50667 121.793669,106.010998 121.397,106.453 C121.000331,106.895002 120.558336,107.263332 120.071,107.558 C119.583664,107.852668 119.02267,108.079333 118.388,108.238 C117.75333,108.396667 117.016671,108.476 116.178,108.476 Z M116.348,106.708 C117.164004,106.708 117.945996,106.583335 118.694,106.334 C119.442004,106.084665 120.093664,105.722002 120.649,105.246 C121.204336,104.769998 121.646332,104.192003 121.975,103.512 C122.303668,102.831997 122.468,102.061338 122.468,101.2 L122.468,98.412 L122.4,98.412 C122.263999,98.6613346 122.003335,98.8426661 121.618,98.956 C121.232665,99.0693339 120.892668,99.1486664 120.598,99.194 C119.691329,99.3526675 118.756338,99.4943327 117.793,99.619 C116.829662,99.7436673 115.951337,99.9306654 115.158,100.18 C114.364663,100.429335 113.713003,100.791998 113.203,101.268 C112.692997,101.744002 112.438,102.401329 112.438,103.24 C112.438,103.784003 112.545666,104.265665 112.761,104.685 C112.976334,105.104335 113.265332,105.466998 113.628,105.773 C113.990668,106.079002 114.404331,106.311333 114.869,106.47 C115.333669,106.628667 115.826664,106.708 116.348,106.708 Z M144.5,108.476 C142.165322,108.476 140.403006,107.937672 139.213,106.861 C138.022994,105.784328 137.371334,104.328009 137.258,102.492 L139.4,102.492 C139.490667,103.12667 139.649332,103.704664 139.876,104.226 C140.102668,104.747336 140.419998,105.189332 140.828,105.552 C141.236002,105.914668 141.74033,106.192332 142.341,106.385 C142.94167,106.577668 143.672662,106.674 144.534,106.674 C145.508672,106.674 146.301997,106.560668 146.914,106.334 C147.526003,106.107332 148.007665,105.807002 148.359,105.433 C148.710335,105.058998 148.953999,104.645336 149.09,104.192 C149.226001,103.738664 149.294,103.285336 149.294,102.832 C149.294,101.947996 149.005003,101.200003 148.427,100.588 C147.848997,99.9759969 146.89134,99.67 145.554,99.67 L142.63,99.67 L142.63,98.038 L145.044,98.038 C146.064005,98.038 146.936663,97.7660027 147.662,97.222 C148.387337,96.6779973 148.75,95.8846719 148.75,94.842 C148.75,94.5246651 148.699001,94.1846685 148.597,93.822 C148.494999,93.4593315 148.285335,93.1250015 147.968,92.819 C147.650665,92.5129985 147.20867,92.2636676 146.642,92.071 C146.075331,91.8783324 145.338671,91.782 144.432,91.782 C142.822659,91.782 141.661004,92.1389964 140.947,92.853 C140.232996,93.5670036 139.819334,94.4679946 139.706,95.556 L137.598,95.556 C137.688667,94.4906613 137.937998,93.6010036 138.346,92.887 C138.754002,92.1729964 139.263997,91.6006688 139.876,91.17 C140.488003,90.7393312 141.190663,90.4333342 141.984,90.252 C142.777337,90.0706658 143.604662,89.98 144.466,89.98 C145.372671,89.98 146.216996,90.0649992 146.999,90.235 C147.781004,90.4050008 148.466664,90.6769981 149.056,91.051 C149.645336,91.4250019 150.109998,91.9123303 150.45,92.513 C150.790002,93.1136697 150.96,93.8446624 150.96,94.706 C150.96,95.2273359 150.880667,95.7033312 150.722,96.134 C150.563333,96.5646688 150.353668,96.9499983 150.093,97.29 C149.832332,97.6300017 149.532002,97.9133322 149.192,98.14 C148.851998,98.3666678 148.500668,98.5139997 148.138,98.582 L148.138,98.65 C148.546002,98.7180003 148.953998,98.8426658 149.362,99.024 C149.770002,99.2053342 150.132665,99.4603317 150.45,99.789 C150.767335,100.117668 151.027999,100.525664 151.232,101.013 C151.436001,101.500336 151.538,102.083997 151.538,102.764 C151.538,103.716005 151.345335,104.548996 150.96,105.263 C150.574665,105.977004 150.059003,106.571998 149.413,107.048 C148.766997,107.524002 148.019004,107.880999 147.169,108.119 C146.318996,108.357001 145.429338,108.476 144.5,108.476 Z M159.766,108.476 C158.949996,108.476 158.185004,108.379668 157.471,108.187 C156.756996,107.994332 156.133669,107.688335 155.601,107.269 C155.068331,106.849665 154.649002,106.317003 154.343,105.671 C154.036998,105.024997 153.884,104.260004 153.884,103.376 C153.884,102.151994 154.155997,101.194337 154.7,100.503 C155.244003,99.8116632 155.963662,99.2846685 156.859,98.922 C157.754338,98.5593315 158.762994,98.3043341 159.885,98.157 C161.007006,98.0096659 162.145994,97.8680007 163.302,97.732 C163.732669,97.6866664 164.123665,97.6300003 164.475,97.562 C164.826335,97.4939997 165.115332,97.3750008 165.342,97.205 C165.568668,97.0349992 165.744333,96.8026681 165.869,96.508 C165.993667,96.2133319 166.056,95.8280024 166.056,95.352 C166.056,94.626663 165.937001,94.031669 165.699,93.567 C165.460999,93.102331 165.132335,92.7340014 164.713,92.462 C164.293665,92.1899986 163.806336,92.0030005 163.251,91.901 C162.695664,91.7989995 162.10067,91.748 161.466,91.748 C160.105993,91.748 158.995338,92.0709968 158.134,92.717 C157.272662,93.3630032 156.819334,94.3999929 156.774,95.828 L154.632,95.828 C154.768001,93.765323 155.476327,92.269338 156.757,91.34 C158.037673,90.410662 159.69799,89.946 161.738,89.946 C162.508671,89.946 163.279329,90.0196659 164.05,90.167 C164.820671,90.3143341 165.511997,90.591998 166.124,91 C166.736003,91.408002 167.234665,91.9803297 167.62,92.717 C168.005335,93.4536703 168.198,94.4113274 168.198,95.59 L168.198,104.906 C168.198,105.767338 168.617329,106.198 169.456,106.198 C169.728001,106.198 169.954666,106.152667 170.136,106.062 L170.136,107.864 C169.886665,107.909334 169.665668,107.943333 169.473,107.966 C169.280332,107.988667 169.036668,108 168.742,108 C168.197997,108 167.761668,107.926334 167.433,107.779 C167.104332,107.631666 166.849334,107.422001 166.668,107.15 C166.486666,106.877999 166.367667,106.555002 166.311,106.181 C166.254333,105.806998 166.226,105.393336 166.226,104.94 L166.158,104.94 C165.772665,105.50667 165.381669,106.010998 164.985,106.453 C164.588331,106.895002 164.146336,107.263332 163.659,107.558 C163.171664,107.852668 162.61067,108.079333 161.976,108.238 C161.34133,108.396667 160.604671,108.476 159.766,108.476 Z M159.936,106.708 C160.752004,106.708 161.533996,106.583335 162.282,106.334 C163.030004,106.084665 163.681664,105.722002 164.237,105.246 C164.792336,104.769998 165.234332,104.192003 165.563,103.512 C165.891668,102.831997 166.056,102.061338 166.056,101.2 L166.056,98.412 L165.988,98.412 C165.851999,98.6613346 165.591335,98.8426661 165.206,98.956 C164.820665,99.0693339 164.480668,99.1486664 164.186,99.194 C163.279329,99.3526675 162.344338,99.4943327 161.381,99.619 C160.417662,99.7436673 159.539337,99.9306654 158.746,100.18 C157.952663,100.429335 157.301003,100.791998 156.791,101.268 C156.280997,101.744002 156.026,102.401329 156.026,103.24 C156.026,103.784003 156.133666,104.265665 156.349,104.685 C156.564334,105.104335 156.853332,105.466998 157.216,105.773 C157.578668,106.079002 157.992331,106.311333 158.457,106.47 C158.921669,106.628667 159.414664,106.708 159.936,106.708 Z M176.936,100.894 C175.371992,100.780666 174.131005,100.265005 173.213,99.347 C172.294995,98.4289954 171.836,97.2106743 171.836,95.692 C171.836,94.9213295 171.960665,94.2130032 172.21,93.567 C172.459335,92.9209968 172.810664,92.3713356 173.264,91.918 C173.717336,91.4646644 174.272663,91.107668 174.93,90.847 C175.587337,90.586332 176.323996,90.456 177.14,90.456 L185.64,90.456 L185.64,108 L183.498,108 L183.498,101.03 L179.35,101.03 L173.332,108 L170.544,108 L176.936,100.894 Z M183.498,99.228 L183.498,92.258 L177.65,92.258 C176.471327,92.258 175.56467,92.5809968 174.93,93.227 C174.29533,93.8730032 173.978,94.7059949 173.978,95.726 C173.978,96.7460051 174.29533,97.5846634 174.93,98.242 C175.56467,98.8993366 176.471327,99.228 177.65,99.228 L183.498,99.228 Z M189.652,90.456 L197.676,90.456 C199.466676,90.456 200.849328,90.8073298 201.824,91.51 C202.798672,92.2126702 203.286,93.2439932 203.286,94.604 C203.286,95.6466719 203.019669,96.5193298 202.487,97.222 C201.954331,97.9246702 201.212005,98.4119986 200.26,98.684 L200.26,98.752 C201.416006,98.956001 202.322663,99.4093298 202.98,100.112 C203.637337,100.81467 203.966,101.811994 203.966,103.104 C203.966,104.690675 203.433339,105.903329 202.368,106.742 C201.302661,107.580671 199.738677,108 197.676,108 L189.652,108 L189.652,90.456 Z M197.438,106.198 C198.934007,106.198 200.038996,105.920336 200.753,105.365 C201.467004,104.809664 201.824,103.976672 201.824,102.866 C201.824,101.845995 201.467004,101.064003 200.753,100.52 C200.038996,99.9759973 198.934007,99.704 197.438,99.704 L191.794,99.704 L191.794,106.198 L197.438,106.198 Z M197.438,98.038 C198.662006,98.038 199.585664,97.7773359 200.209,97.256 C200.832336,96.7346641 201.144,96.0320044 201.144,95.148 C201.144,93.2213237 199.908679,92.258 197.438,92.258 L191.794,92.258 L191.794,98.038 L197.438,98.038 Z M214.676,108.476 C213.33866,108.476 212.154338,108.232336 211.123,107.745 C210.091662,107.257664 209.22467,106.594671 208.522,105.756 C207.81933,104.917329 207.286668,103.937006 206.924,102.815 C206.561332,101.692994 206.38,100.49734 206.38,99.228 C206.38,97.9813271 206.561332,96.791339 206.924,95.658 C207.286668,94.524661 207.81933,93.5386709 208.522,92.7 C209.22467,91.8613291 210.091662,91.1926692 211.123,90.694 C212.154338,90.1953308 213.33866,89.946 214.676,89.946 C216.01334,89.946 217.197662,90.1953308 218.229,90.694 C219.260338,91.1926692 220.12733,91.8613291 220.83,92.7 C221.53267,93.5386709 222.065332,94.524661 222.428,95.658 C222.790668,96.791339 222.972,97.9813271 222.972,99.228 C222.972,100.49734 222.790668,101.692994 222.428,102.815 C222.065332,103.937006 221.53267,104.917329 220.83,105.756 C220.12733,106.594671 219.260338,107.257664 218.229,107.745 C217.197662,108.232336 216.01334,108.476 214.676,108.476 Z M214.676,106.708 C215.696005,106.708 216.591329,106.492669 217.362,106.062 C218.132671,105.631331 218.772997,105.06467 219.283,104.362 C219.793003,103.65933 220.178332,102.860338 220.439,101.965 C220.699668,101.069662 220.83,100.157338 220.83,99.228 C220.83,98.298662 220.699668,97.3863378 220.439,96.491 C220.178332,95.5956622 219.793003,94.7966702 219.283,94.094 C218.772997,93.3913298 218.132671,92.8246688 217.362,92.394 C216.591329,91.9633312 215.696005,91.748 214.676,91.748 C213.655995,91.748 212.760671,91.9633312 211.99,92.394 C211.219329,92.8246688 210.579003,93.3913298 210.069,94.094 C209.558997,94.7966702 209.173668,95.5956622 208.913,96.491 C208.652332,97.3863378 208.522,98.298662 208.522,99.228 C208.522,100.157338 208.652332,101.069662 208.913,101.965 C209.173668,102.860338 209.558997,103.65933 210.069,104.362 C210.579003,105.06467 211.219329,105.631331 211.99,106.062 C212.760671,106.492669 213.655995,106.708 214.676,106.708 Z M226.168,90.456 L228.31,90.456 L228.31,99.466 L238.034,90.456 L240.89,90.456 L233.444,97.324 L241.332,108 L238.646,108 L231.88,98.786 L228.31,102.084 L228.31,108 L226.168,108 L226.168,90.456 Z"/>
    </g>
  </g>
</svg>