<svg xmlns="http://www.w3.org/2000/svg" width="156" height="152" viewBox="0 0 156 152">
  <g fill="#0069FF" fill-rule="evenodd" transform="translate(-20 -2.15)">
    <path d="M76.0542315,20.7589825 C78.5259774,15.8154907 82.5307949,15.8101419 85.0052153,20.7589825 L139.70064,130.149833 C142.172386,135.093325 139.701745,139.100816 134.174405,139.100816 L26.8850423,139.100816 C21.3612406,139.100816 18.8843861,135.098673 21.3588064,130.149833 L76.0542315,20.7589825 Z" opacity=".25" transform="scale(1 -1) rotate(-70 -30.973 0)"/>
    <path d="M73.9328913,20.6497671 C76.4046372,15.7062753 80.4094547,15.7009264 82.8838751,20.6497671 L137.5793,130.040617 C140.051046,134.984109 137.580405,138.991601 132.053064,138.991601 L24.7637021,138.991601 C19.2399004,138.991601 16.7630459,134.989458 19.2374662,130.040617 L73.9328913,20.6497671 Z" opacity=".5" transform="scale(-1 1) rotate(70 0 -34.012)"/>
    <path d="M110.308782,20.7043566 C112.780528,15.7608648 116.785345,15.7555159 119.259766,20.7043566 L173.955191,130.095207 C176.426937,135.038699 173.956296,139.046191 168.428955,139.046191 L61.1395928,139.046191 C55.6157911,139.046191 53.1389366,135.044047 55.6133569,130.095207 L110.308782,20.7043566 Z" transform="rotate(90 114.784 78.02)"/>
  </g>
</svg>
