<svg xmlns="http://www.w3.org/2000/svg" width="50" height="50" viewBox="0 0 50 50" xmlns:xlink="http://www.w3.org/1999/xlink">
  <defs>
    <path id="a" d="M25,0.00015625 C38.8078125,0.00015625 50,11.1923438 50,25.0001563 C50,38.8079688 38.8078125,50.0001563 25,50.0001563 C11.1921875,50.0001563 0,38.8079688 0,25.0001563 C0,11.1923438 11.1921875,0.00015625 25,0.00015625"/>
    <path id="b" d="M40.3221448,44.7563614 C36.090147,48.0432036 30.7737444,50.0001563 25,50.0001563 C19.2242273,50.0001563 13.9061178,48.0418284 9.67339554,44.752897 C13.2766014,41.8121739 19.1585048,41.4792792 20.3303125,38.2739062 C20.469375,36.7082812 20.41625,35.6145312 20.41625,34.1817187 C19.7178125,33.8114062 18.419375,31.4348437 18.2084375,29.4301562 C17.6615625,29.3848437 16.7975,28.8410937 16.544375,26.6910937 C16.4084375,25.5379687 16.950625,24.8895312 17.2803125,24.6848437 C15.4271875,17.4223437 16.4459375,11.0817187 24.900625,10.9239062 C27.013125,10.9239062 28.6396875,11.4973437 29.2740625,12.6332812 C35.444375,13.5051562 33.59125,21.9535937 32.700625,24.6848437 C33.0303125,24.8895312 33.5725,25.5379687 33.4365625,26.6910937 C33.1834375,28.8410937 32.319375,29.3848437 31.7709375,29.4301562 C31.56,31.4364062 30.3115625,33.8114062 29.613125,34.1817187 C29.613125,35.6145312 29.5615625,36.7082812 29.700625,38.2739062 C30.8705911,41.4807045 36.7354624,41.812351 40.3221448,44.7563614 Z"/>
  </defs>
  <g fill="none" fill-rule="evenodd">
    <use fill="#EFF0F4" xlink:href="#a"/>
    <use fill="#BFC4CA" xlink:href="#b"/>
  </g>
</svg>
