<svg xmlns="http://www.w3.org/2000/svg" width="15" height="15" viewBox="0 0 15 15">
  <path fill="#4B606B" d="M0,11.6666667 L0,13.3333333 L5,13.3333333 L5,11.6666667 L0,11.6666667 Z M0,1.66666667 L0,3.33333333 L8.33333333,3.33333333 L8.33333333,1.66666667 L0,1.66666667 Z M8.33333333,15 L8.33333333,13.3333333 L15,13.3333333 L15,11.6666667 L8.33333333,11.6666667 L8.33333333,10 L6.66666667,10 L6.66666667,15 L8.33333333,15 Z M3.33333333,5 L3.33333333,6.66666667 L0,6.66666667 L0,8.33333333 L3.33333333,8.33333333 L3.33333333,10 L5,10 L5,5 L3.33333333,5 Z M15,8.33333333 L15,6.66666667 L6.66666667,6.66666667 L6.66666667,8.33333333 L15,8.33333333 Z M10,5 L11.6666667,5 L11.6666667,3.33333333 L15,3.33333333 L15,1.66666667 L11.6666667,1.66666667 L11.6666667,0 L10,0 L10,5 Z"/>
</svg>