<svg xmlns="http://www.w3.org/2000/svg" width="120" height="100" viewBox="0 0 120 100" xmlns:xlink="http://www.w3.org/1999/xlink">
  <defs>
    <circle id="a" cx="17.5" cy="37.5" r="3.5"/>
    <mask id="d" width="7" height="7" x="0" y="0" fill="white">
      <use xlink:href="#a"/>
    </mask>
    <path id="b" d="M84,52 C84,51.8902939 84.0017661,51.7810005 84.0052715,51.6721465 C89.267515,51.5026451 93.5026455,47.2675143 93.6721465,42.0052707 C93.7809997,42.0017658 93.8902932,42 94,42 C94.1097061,42 94.2189995,42.0017661 94.3278535,42.0052715 C94.4973549,47.267515 98.7324857,51.5026455 103.994729,51.6721465 C103.998234,51.7809997 104,51.8902932 104,52 C104,52.1097061 103.998234,52.2189995 103.994729,52.3278535 C98.732485,52.4973549 94.4973545,56.7324857 94.3278535,61.9947293 C94.2190003,61.9982342 94.1097068,62 94,62 C93.8902939,62 93.7810005,61.9982339 93.6721465,61.9947285 C93.5026451,56.732485 89.2675143,52.4973545 84.0052707,52.3278535 C84.0017658,52.2190003 84,52.1097068 84,52 Z"/>
    <mask id="e" width="20" height="20" x="0" y="0" fill="white">
      <use xlink:href="#b"/>
    </mask>
    <path id="c" d="M3.25499555,76.746814 C3.25499555,76.6536536 3.2564953,76.5608435 3.259472,76.4684067 C7.72807363,76.3244692 11.3244696,72.728073 11.4684068,68.2594713 C11.5608429,68.2564951 11.6536529,68.2549955 11.746814,68.2549955 C11.8399744,68.2549955 11.9327844,68.2564953 12.0252212,68.259472 C12.1691588,72.7280736 15.7655549,76.3244696 20.2341567,76.4684068 C20.2371329,76.5608429 20.2386324,76.6536529 20.2386324,76.746814 C20.2386324,76.8399744 20.2371326,76.9327844 20.234156,77.0252212 C15.7655543,77.1691588 12.1691584,80.7655549 12.0252212,85.2341567 C11.932785,85.2371329 11.839975,85.2386324 11.746814,85.2386324 C11.6536536,85.2386324 11.5608435,85.2371326 11.4684067,85.234156 C11.3244692,80.7655543 7.72807302,77.1691584 3.25947129,77.0252212 C3.25649507,76.932785 3.25499555,76.839975 3.25499555,76.746814 Z"/>
    <mask id="f" width="16.984" height="16.984" x="0" y="0" fill="white">
      <use xlink:href="#c"/>
    </mask>
  </defs>
  <g fill="none" transform="translate(-4)">
    <g transform="translate(19)">
      <circle cx="50" cy="50" r="50" fill="#F5F9FF"/>
      <path fill="#0069FF" d="M77.4685775,85.7178218 L85.7644566,85.7178218 L87.976691,85.7178218 L87.976691,87.9455446 C87.976691,91.8416127 84.8402626,95 80.971282,95 L78.7590476,95 L44.6554456,95 L20.8726226,95 C15.9853103,95 12.023309,91.0117188 12.023309,86.0908675 L12.023309,25.9424772 C12.023309,22.660792 14.6609796,20 17.9192431,20 L70.2821733,20 C73.5387504,20 76.1781074,22.6623203 76.1781074,25.9424772 L76.1781074,30.0247525 C76.1781074,30.6399211 75.6828819,31.1386139 75.0719902,31.1386139 C74.4610985,31.1386139 73.965873,30.6399211 73.965873,30.0247525 L73.965873,25.9424772 C73.965873,23.892315 72.3166244,22.2277228 70.2821733,22.2277228 L17.9192431,22.2277228 C15.8830182,22.2277228 14.2355434,23.890875 14.2355434,25.9424772 L14.2355434,86.0908675 C14.2355434,89.7813525 17.207065,92.7722772 20.8726226,92.7722772 L44.6554456,92.7722772 L75.8623151,92.7722772 C74.6862159,91.5104154 73.965873,89.8126915 73.965873,87.9455446 L73.965873,85.7178218 L76.1781074,85.7178218 L77.4685775,85.7178218 L78.7590476,85.7178218 L79.8651648,85.7178218 L75.5794332,86.2328512 L73.965873,85.7178218 L73.965873,72.3514851 C73.965873,71.7363165 74.4610985,71.2376238 75.0719902,71.2376238 C75.6828819,71.2376238 76.1781074,71.7363165 76.1781074,72.3514851 L76.1781074,87.9455446 L73.965873,85.7178218 L77.4685775,85.7178218 L77.4685775,85.7178218 Z M27.50895,59.7277228 C27.50895,59.1125541 28.0014806,58.6138614 28.6179477,58.6138614 L52.2093539,58.6138614 C52.8218364,58.6138614 53.3183516,59.1138059 53.3183516,59.7277228 C53.3183516,60.3428914 52.825821,60.8415842 52.2093539,60.8415842 L28.6179477,60.8415842 C28.0054652,60.8415842 27.50895,60.3416397 27.50895,59.7277228 L27.50895,59.7277228 Z M27.50895,70.8663366 C27.50895,70.251168 28.0037883,69.7524752 28.613025,69.7524752 L59.5883914,69.7524752 C60.1981552,69.7524752 60.6924664,70.2524197 60.6924664,70.8663366 C60.6924664,71.4815053 60.1976281,71.980198 59.5883914,71.980198 L28.613025,71.980198 C28.0032612,71.980198 27.50895,71.4802535 27.50895,70.8663366 L27.50895,70.8663366 Z M27.50895,48.5891089 C27.50895,47.9739403 28.0014806,47.4752475 28.6179477,47.4752475 L52.2093539,47.4752475 C52.8218364,47.4752475 53.3183516,47.975192 53.3183516,48.5891089 C53.3183516,49.2042776 52.825821,49.7029703 52.2093539,49.7029703 L28.6179477,49.7029703 C28.0054652,49.7029703 27.50895,49.2030258 27.50895,48.5891089 L27.50895,48.5891089 Z M85.7644566,87.9455446 L76.1781074,87.9455446 C76.1781074,90.6112754 78.3240848,92.7722772 80.971282,92.7722772 C83.6184792,92.7722772 85.7644566,90.6112754 85.7644566,87.9455446 L85.7644566,87.9455446 Z"/>
    </g>
    <circle cx="122" cy="80" r="2" fill="#0069FF"/>
    <use stroke="#0069FF" stroke-width="4" mask="url(#d)" stroke-linecap="round" stroke-linejoin="round" xlink:href="#a"/>
    <use stroke="#0069FF" stroke-width="4" mask="url(#e)" stroke-linecap="round" stroke-linejoin="round" xlink:href="#b"/>
    <path fill="#0069FF" d="M102,11.4918184 C102,11.398658 102.0015,11.305848 102.004476,11.2134112 C106.473078,11.0694736 110.069474,7.47307747 110.213411,3.00447574 C110.305847,3.00149952 110.398657,3 110.491818,3 C110.584979,3 110.677789,3.00149975 110.770226,3.00447645 C110.914163,7.47307808 114.510559,11.069474 118.979161,11.2134112 C118.982137,11.3058474 118.983637,11.3986574 118.983637,11.4918184 C118.983637,11.5849788 118.982137,11.6777889 118.97916,11.7702257 C114.510559,11.9141632 110.914163,15.5105594 110.770226,19.9791611 C110.677789,19.9821373 110.584979,19.9836369 110.491818,19.9836369 C110.398658,19.9836369 110.305848,19.9821371 110.213411,19.9791604 C110.069474,15.5105588 106.473077,11.9141628 102.004476,11.7702256 C102.0015,11.6777895 102,11.5849795 102,11.4918184 Z"/>
    <use stroke="#0069FF" stroke-width="4" mask="url(#f)" stroke-linecap="round" stroke-linejoin="round" transform="rotate(33 11.747 76.747)" xlink:href="#c"/>
  </g>
</svg>
