<svg xmlns="http://www.w3.org/2000/svg" width="120" height="100" viewBox="0 0 120 100" xmlns:xlink="http://www.w3.org/1999/xlink">
  <defs>
    <path id="a" d="M88,10.4918184 C88,10.398658 88.0014998,10.305848 88.0044764,10.2134112 C92.4730781,10.0694736 96.069474,6.47307747 96.2134112,2.00447574 C96.3058474,2.00149952 96.3986574,2 96.4918184,2 C96.5849788,2 96.6777889,2.00149975 96.7702257,2.00447645 C96.9141632,6.47307808 100.510559,10.069474 104.979161,10.2134112 C104.982137,10.3058474 104.983637,10.3986574 104.983637,10.4918184 C104.983637,10.5849788 104.982137,10.6777889 104.97916,10.7702257 C100.510559,10.9141632 96.9141628,14.5105594 96.7702256,18.9791611 C96.6777895,18.9821373 96.5849795,18.9836369 96.4918184,18.9836369 C96.398658,18.9836369 96.305848,18.9821371 96.2134112,18.9791604 C96.0694736,14.5105588 92.4730775,10.9141628 88.0044757,10.7702256 C88.0014995,10.6777895 88,10.5849795 88,10.4918184 Z"/>
    <mask id="c" width="16.984" height="16.984" x="0" y="0" fill="white">
      <use xlink:href="#a"/>
    </mask>
    <path id="b" d="M3.25499555,40.746814 C3.25499555,40.6536536 3.2564953,40.5608435 3.259472,40.4684067 C7.72807363,40.3244692 11.3244696,36.728073 11.4684068,32.2594713 C11.5608429,32.2564951 11.6536529,32.2549955 11.746814,32.2549955 C11.8399744,32.2549955 11.9327844,32.2564953 12.0252212,32.259472 C12.1691588,36.7280736 15.7655549,40.3244696 20.2341567,40.4684068 C20.2371329,40.5608429 20.2386324,40.6536529 20.2386324,40.746814 C20.2386324,40.8399744 20.2371326,40.9327844 20.234156,41.0252212 C15.7655543,41.1691588 12.1691584,44.7655549 12.0252212,49.2341567 C11.932785,49.2371329 11.839975,49.2386324 11.746814,49.2386324 C11.6536536,49.2386324 11.5608435,49.2371326 11.4684067,49.234156 C11.3244692,44.7655543 7.72807302,41.1691584 3.25947129,41.0252212 C3.25649507,40.932785 3.25499555,40.839975 3.25499555,40.746814 Z"/>
    <mask id="d" width="16.984" height="16.984" x="0" y="0" fill="white">
      <use xlink:href="#b"/>
    </mask>
  </defs>
  <g fill="none" transform="translate(-3)">
    <g transform="translate(12)">
      <circle cx="50" cy="50" r="50" fill="#F5F9FF"/>
      <g fill="#0069FF" transform="translate(12 6)">
        <path d="M26.5977092 54.1384689L27.6083598 52.5742681C27.5791925 52.5355167 27.6368749 52.4645286 27.6083598 52.4254519L26.1254965 52.2133333C16.2909139 52.2133333 6.53292787 59.825567 4.14809498 69.3582043L.455424264 84.1185218C-.130469829 86.4604535 1.53441349 88.6044444 3.95461497 88.6044444L72.045385 88.6044444C74.4676223 88.6044444 76.1310295 86.4626907 75.5445757 84.1185218L71.851905 69.3582043C69.4679146 59.8289344 59.7073342 52.2133333 49.8745035 52.2133333L49.3880881 52.2133333C49.3595714 52.2524123 48.2427008 52.3867005 48.2135335 52.4254519L49.649573 54.1384689 48.5430168 53.2250776C48.1576225 53.6311543 47.7338322 54.0141403 47.2757748 54.3708473L47.3173077 54.5866667 49.8745035 54.5866667C58.6192862 54.5866667 67.4285716 61.4627909 69.5478166 69.9338222L73.2404873 84.6941396C73.4528478 85.5429855 72.9198137 86.2311111 72.045385 86.2311111L3.95461497 86.2311111C3.08221771 86.2311111 2.54771331 85.5407427 2.7595127 84.6941396L6.45218342 69.9338222C8.57267146 61.4578222 17.3806136 54.5866667 26.1254965 54.5866667L28.6826923 54.5866667 28.7242252 54.3708473C28.2661678 54.0141403 27.8423775 53.6311543 27.4569832 53.2250776L26.5977092 54.1384689zM20.7800149 36.9616467C20.9045935 37.4477551 21.1660109 38.2626915 21.5874626 39.2987351 22.2862101 41.0164477 23.1917098 42.734014 24.3307668 44.3432748 27.6295143 49.0037486 32.1910718 51.8354548 38.1398938 51.8354548 44.053379 51.8354548 48.5506823 49.3573727 51.7589954 45.2607635 52.8728779 43.8384767 53.7491379 42.319379 54.4168644 40.7993087 54.820735 39.8799027 55.0682351 39.1541367 55.1852825 38.7162956L52.8907457 38.103761C52.8718876 38.1743039 52.8254749 38.328132 52.7487442 38.5531361 52.6166625 38.9404506 52.4486775 39.3752312 52.2421624 39.8453603 51.6498509 41.1937494 50.8714996 42.543111 49.8886754 43.7980529 47.1063979 47.3506687 43.2744653 49.4621215 38.1398938 49.4621215 33.0406591 49.4621215 29.1562118 47.0507491 26.2697539 42.9727586 25.243989 41.5235569 24.4218967 39.9641991 23.7876258 38.4049875 23.5660409 37.8602711 23.3842312 37.3559142 23.2398347 36.9057761 23.1900427 36.7505555 23.1486613 36.6139779 23.1153823 36.4977721 23.0964838 36.4317809 23.0850493 36.3895628 23.0807646 36.3728438L20.7800149 36.9616467 20.7800149 36.9616467z"/>
        <path d="M23.4576511 27.1398765L23.4576511 27.1398765C23.2672693 27.8651219 23.1385331 28.6966885 23.0698913 29.6130265 22.9407895 31.3364793 23.0284621 33.2242057 23.2553189 35.065315 23.3087713 35.4991205 23.3658306 35.8941547 23.4224623 36.2412055 23.4553265 36.442604 23.4797427 36.5783661 23.4916345 36.6394243 23.9699893 39.0955103 20.8111167 40.5238298 19.2806613 38.5434629 19.2202121 38.4652432 19.1385067 38.3513895 19.0388938 38.2012554 18.892597 37.9807606 18.7350842 37.7226953 18.5697181 37.4264513 18.1194569 36.6198333 17.6778915 35.6530604 17.2719027 34.5218179 15.9450443 30.8246751 15.2630704 26.1824572 15.5393067 20.5511909 15.7763152 15.7196107 17.526215 11.622709 20.2810002 8.27121475 21.3189274 7.00846408 22.4309029 5.93898182 23.5485858 5.05388402 23.9458186 4.73931371 24.3185075 4.46853095 24.6584161 4.24060171 24.8759485 4.09473316 25.0437632 3.9903486 25.1536886 3.92664111L25.0839514 3.96867045C25.3099253 3.82714441 25.6956849 3.60533198 26.2259895 3.33042483 27.0856321 2.88479062 28.0577741 2.44188135 29.127772 2.02934486 34.9447841-.213397525 41.0787405-.707353896 46.9073613 1.71125429 49.5705042 2.81633548 52.0468306 4.50603322 54.2923639 6.8155766 57.377083 9.98822718 59.2957928 13.7441236 60.1734695 17.9250333 61.3127654 23.3521947 60.6619808 29.0606479 58.9024442 34.5896727 58.5039437 35.8418884 58.0763024 36.9870549 57.6466931 38.0044703 57.383533 38.6276948 57.1731414 39.0794194 57.0424013 39.3384406 55.8390031 41.7226019 52.2224298 40.6118958 52.5666653 37.9638723 52.5661719 37.9676677 52.5695764 37.9340749 52.5743326 37.8664581 52.6133515 37.3117426 52.590438 36.5835363 52.4549229 35.7551409 52.2578899 34.550691 51.8549207 33.3721964 51.2024353 32.2772636 50.0712819 30.3790805 48.2621246 28.8395949 45.5677949 27.7719036 43.1043341 26.7956995 40.6248346 25.6377951 38.1557005 24.3359444 35.4084577 22.8874608 32.815033 21.3376026 30.4507056 19.786676 29.6212675 19.24259 28.8785039 18.7363457 28.232031 18.2804815 27.8386302 18.0030727 27.5611211 17.8013348 27.4091899 17.6878156L30.4799953 17.4954484C30.4300953 17.5435344 30.326671 17.6451614 30.1774823 17.794992 29.9232713 18.0502968 29.6385744 18.3433413 29.3311958 18.6687041 28.4523314 19.5989893 27.5735991 20.5958194 26.7584645 21.6132921 25.9106664 22.6715363 25.1832878 23.6892094 24.6147896 24.6322348 24.0308121 25.6009372 23.6373538 26.4553122 23.4576511 27.1398765zM21.1603775 26.5376727C22.3405329 22.041958 28.8313879 15.7870521 28.8313879 15.7870521 28.8313879 15.7870521 36.8094932 21.7480911 46.443281 25.5657054 56.0770688 29.3833196 54.9218757 38.2696135 54.9218757 38.2696135 54.9218757 38.2696135 64.0260424 20.2325222 52.5889732 8.46943335 41.1519041-3.29365545 26.3452064 5.97968481 26.3452064 5.97968481 26.3452064 5.97968481 18.40625 10.5807246 17.9114584 20.6673912 17.3477305 32.1593701 21.1603775 37.09283 21.1603775 37.09283 21.1603775 37.09283 19.980222 31.0333874 21.1603775 26.5376727zM26.4348289 54.1006813L36.5285789 75.658459C36.8065199 76.2520729 37.5133926 76.5081344 38.1074233 76.2303885 38.701454 75.9526426 38.9576954 75.2462659 38.6797544 74.6526521L28.5860044 53.0948743C28.3080634 52.5012604 27.6011907 52.2451989 27.00716 52.5229448 26.4131293 52.8006908 26.1568879 53.5070674 26.4348289 54.1006813L26.4348289 54.1006813z"/>
        <path d="M36.5439868,54.1323555 L47.4294035,75.6901333 C47.7248499,76.2752436 48.4390153,76.5102306 49.0245365,76.2149914 C49.6100577,75.9197523 49.8452097,75.2060881 49.5497632,74.6209778 L38.6643465,53.0632 C38.3689001,52.4780897 37.6547347,52.2431027 37.0692135,52.5383419 C36.4836923,52.833581 36.2485403,53.5472452 36.5439868,54.1323555 L36.5439868,54.1323555 Z" transform="matrix(-1 0 0 1 86.094 0)"/>
        <path d="M19.1838923,67.4955634 L15.4234756,76.8900079 C15.123312,77.6398902 15.6442054,78.4638306 16.4507964,78.5150068 C16.4926503,78.5176624 16.5744383,78.5229286 16.6934949,78.5307141 C16.8923596,78.5437185 17.1231669,78.5590595 17.3832508,78.5766456 C18.1267825,78.6269209 18.9554667,78.6850802 19.8479607,78.7503895 C22.3973815,78.9369462 24.9465507,79.1433244 27.3240947,79.3635643 C32.7632527,79.8674118 36.5775956,80.3859389 37.5322208,80.7947769 C38.3251296,81.1343565 39.2083626,81.1860539 40.2810971,81.0340399 C40.9845945,80.9343494 41.1570012,80.8938458 43.0269065,80.4230516 C45.7066204,79.7483684 47.2149064,79.5998052 48.8140845,80.0589064 C49.2828509,80.1934825 49.73554,80.383707 50.17646,80.6354845 C51.3779522,81.3215696 52.4002865,82.1781102 53.259911,83.1681685 C54.0792331,84.1118094 54.7081551,85.1245269 55.1690288,86.1347663 C55.3288645,86.4851277 55.4557415,86.8081264 55.5526483,87.0944322 C55.6077228,87.2571469 55.6391416,87.3649744 55.6500391,87.4085338 C55.8091032,88.0443437 56.4538379,88.4309131 57.0900944,88.2719606 C57.7263508,88.1130081 58.1131917,87.4687258 57.9541276,86.8329159 C57.8634684,86.4705337 57.6654002,85.8853518 57.3300595,85.1502819 C56.779395,83.9432203 56.0313197,82.7386368 55.0538018,81.6127967 C54.0238922,80.4266152 52.7958962,79.3977655 51.35479,78.5748541 C50.7481494,78.2284456 50.1199472,77.9644687 49.4698661,77.7778397 C47.3499202,77.1692336 45.5093934,77.3505218 42.4466561,78.1216406 C39.8123404,78.7848937 39.1030463,78.8854057 38.4677792,78.6133394 C37.1663919,78.0559934 33.3746588,77.5405399 27.5433136,77.0003628 C25.1487553,76.7785468 22.5849577,76.5709842 20.0214117,76.3833939 C19.1243673,76.3177516 18.2913374,76.2592873 17.5435871,76.2087268 C17.2817222,76.1910203 17.049167,76.1755631 16.8485811,76.1624461 C16.7279674,76.1545588 16.6446491,76.149194 16.601287,76.1464428 L17.6286077,77.7714418 L21.3890244,68.3769973 C21.6325966,67.7684942 21.3364152,67.0778893 20.7274848,66.834488 C20.1185543,66.5910868 19.4274644,66.8870603 19.1838923,67.4955634 L19.1838923,67.4955634 Z"/>
      </g>
    </g>
    <circle cx="121" cy="26" r="2" fill="#0069FF"/>
    <circle cx="5" cy="79" r="2" fill="#0069FF"/>
    <path fill="#0069FF" d="M103,66.4918184 C103,66.398658 103.0015,66.305848 103.004476,66.2134112 C107.473078,66.0694736 111.069474,62.4730775 111.213411,58.0044757 C111.305847,58.0014995 111.398657,58 111.491818,58 C111.584979,58 111.677789,58.0014998 111.770226,58.0044764 C111.914163,62.4730781 115.510559,66.069474 119.979161,66.2134112 C119.982137,66.3058474 119.983637,66.3986574 119.983637,66.4918184 C119.983637,66.5849788 119.982137,66.6777889 119.97916,66.7702257 C115.510559,66.9141632 111.914163,70.5105594 111.770226,74.9791611 C111.677789,74.9821373 111.584979,74.9836369 111.491818,74.9836369 C111.398658,74.9836369 111.305848,74.9821371 111.213411,74.9791604 C111.069474,70.5105588 107.473077,66.9141628 103.004476,66.7702256 C103.0015,66.6777895 103,66.5849795 103,66.4918184 Z"/>
    <use stroke="#0069FF" stroke-width="4" mask="url(#c)" stroke-linecap="round" stroke-linejoin="round" xlink:href="#a"/>
    <use stroke="#0069FF" stroke-width="4" mask="url(#d)" stroke-linecap="round" stroke-linejoin="round" transform="rotate(33 11.747 40.747)" xlink:href="#b"/>
  </g>
</svg>
