<svg xmlns="http://www.w3.org/2000/svg" width="109" height="109" viewBox="0 0 109 109" xmlns:xlink="http://www.w3.org/1999/xlink">
  <defs>
    <path id="a" d="M6,23.4918184 C6,23.398658 6.00149975,23.305848 6.00447645,23.2134112 C10.4730781,23.0694736 14.069474,19.4730775 14.2134112,15.0044757 C14.3058474,15.0014995 14.3986574,15 14.4918184,15 C14.5849788,15 14.6777889,15.0014998 14.7702257,15.0044764 C14.9141632,19.4730781 18.5105594,23.069474 22.9791611,23.2134112 C22.9821373,23.3058474 22.9836369,23.3986574 22.9836369,23.4918184 C22.9836369,23.5849788 22.9821371,23.6777889 22.9791604,23.7702257 C18.5105588,23.9141632 14.9141628,27.5105594 14.7702256,31.9791611 C14.6777895,31.9821373 14.5849795,31.9836369 14.4918184,31.9836369 C14.398658,31.9836369 14.305848,31.9821371 14.2134112,31.9791604 C14.0694736,27.5105588 10.4730775,23.9141628 6.00447574,23.7702256 C6.00149952,23.6777895 6,23.5849795 6,23.4918184 Z"/>
    <mask id="c" width="16.984" height="16.984" x="0" y="0" fill="white">
      <use xlink:href="#a"/>
    </mask>
    <path id="b" d="M93.2549955,47.746814 C93.2549955,47.6536536 93.2564953,47.5608435 93.259472,47.4684067 C97.7280736,47.3244692 101.32447,43.728073 101.468407,39.2594713 C101.560843,39.2564951 101.653653,39.2549955 101.746814,39.2549955 C101.839974,39.2549955 101.932784,39.2564953 102.025221,39.259472 C102.169159,43.7280736 105.765555,47.3244696 110.234157,47.4684068 C110.237133,47.5608429 110.238632,47.6536529 110.238632,47.746814 C110.238632,47.8399744 110.237133,47.9327844 110.234156,48.0252212 C105.765554,48.1691588 102.169158,51.7655549 102.025221,56.2341567 C101.932785,56.2371329 101.839975,56.2386324 101.746814,56.2386324 C101.653654,56.2386324 101.560844,56.2371326 101.468407,56.234156 C101.324469,51.7655543 97.728073,48.1691584 93.2594713,48.0252212 C93.2564951,47.932785 93.2549955,47.839975 93.2549955,47.746814 Z"/>
    <mask id="d" width="16.984" height="16.984" x="0" y="0" fill="white">
      <use xlink:href="#b"/>
    </mask>
  </defs>
  <g fill="none">
    <g transform="translate(4 5)">
      <circle cx="50" cy="50" r="50" fill="#F5F9FF"/>
      <path fill="#0069FF" d="M66.0046873,68.7802943 C66.272918,68.9227037 66.524709,69.1068071 66.7504199,69.3325181 L68.8423422,71.4244404 L70.0241195,72.6062176 C71.0816546,72.6367293 72.1299778,73.0553902 72.9365526,73.861965 L86.7425271,87.6679395 C88.4196735,89.3450859 88.4184895,92.066231 86.7423969,93.7423236 C85.0651862,95.4195343 82.3444324,95.4188733 80.6680128,93.7424537 L66.8620384,79.9364793 C66.0553248,79.1297657 65.6369173,78.0815079 65.6064352,77.0241904 L64.4245137,75.8422689 L62.3325914,73.7503466 L62.3325914,73.7503466 C62.1068515,73.5246067 61.9226506,73.2729053 61.7801113,73.0048248 C49.8156255,82.8465098 32.1027166,82.1764715 20.9209552,70.9947101 C9.02644603,59.1002009 9.02644603,39.8153911 20.9209552,27.9208819 C32.8154645,16.0263727 52.1002742,16.0263727 63.9947834,27.9208819 C75.1766247,39.1027232 75.8465927,56.8158052 66.0046873,68.7802943 L66.0046873,68.7802943 L66.0046873,68.7802943 Z M68.5187241,78.2797936 L82.3246985,92.085768 C83.0859354,92.8470049 84.3232427,92.8481064 85.0857112,92.0856379 C85.8466283,91.3247208 85.848238,90.0870219 85.0858414,89.3246252 L71.2798669,75.5186507 C70.51863,74.7574139 69.2813228,74.7563123 68.5188542,75.5187809 C67.7579371,76.279698 67.7563274,77.5173969 68.5187241,78.2797936 L68.5187241,78.2797936 L68.5187241,78.2797936 Z M62.3380977,69.3380244 C73.3176447,58.3584774 73.3176447,40.5571146 62.3380977,29.5775676 C51.3585508,18.5980206 33.5571879,18.5980206 22.5776409,29.5775676 C11.598094,40.5571146 11.598094,58.3584774 22.5776409,69.3380244 C33.5571879,80.3175714 51.3585508,80.3175714 62.3380977,69.3380244 L62.3380977,69.3380244 L62.3380977,69.3380244 Z M59.3008406,66.3007673 C49.9987244,75.6028835 34.9170142,75.6028835 25.6148981,66.3007673 C16.3127819,56.9986511 16.3127819,41.9169409 25.6148981,32.6148247 C34.9170142,23.3127085 49.9987244,23.3127085 59.3008406,32.6148247 C68.6029568,41.9169409 68.6029568,56.9986511 59.3008406,66.3007673 L59.3008406,66.3007673 L59.3008406,66.3007673 Z M57.6441549,64.6440816 C66.0313089,56.2569277 66.0313089,42.6586644 57.6441549,34.2715104 C49.257001,25.8843565 35.6587377,25.8843565 27.2715838,34.2715104 C18.8844298,42.6586644 18.8844298,56.2569277 27.2715838,64.6440816 C35.6587377,73.0312355 49.257001,73.0312355 57.6441549,64.6440816 L57.6441549,64.6440816 L57.6441549,64.6440816 Z M63.9892771,72.0936609 L66.0811994,74.1855832 L67.1856565,73.0811261 L65.0937342,70.9892038 C64.7878859,70.6833554 64.2916428,70.6815947 63.9866554,70.9865821 C63.6795417,71.2936958 63.6828418,71.7872256 63.9892771,72.0936609 L63.9892771,72.0936609 L63.9892771,72.0936609 Z M42.4071289,64.245469 C50.6021583,64.245469 57.2455423,57.602085 57.2455423,49.4070555 C57.2455423,48.7600795 57.77002,48.2356019 58.416996,48.2356019 C59.063972,48.2356019 59.5884497,48.7600795 59.5884497,49.4070555 C59.5884497,58.896037 51.8961104,66.5883764 42.4071289,66.5883764 C41.7601529,66.5883764 41.2356752,66.0638987 41.2356752,65.4169227 C41.2356752,64.7699467 41.7601529,64.245469 42.4071289,64.245469 Z M69.8994256,82.421638 C69.4419445,81.9641568 69.4419904,81.2223875 69.8978247,80.7665532 L73.7666265,76.8977514 C74.2232235,76.4411544 74.9651611,76.4428021 75.4217113,76.8993523 C75.8791924,77.3568334 75.8791465,78.0986028 75.4233122,78.5544371 L71.5545104,82.4232389 C71.0979135,82.8798358 70.3559759,82.8781882 69.8994256,82.421638 Z"/>
    </g>
    <circle cx="79" cy="21" r="2" fill="#0069FF"/>
    <circle cx="53" cy="2" r="2" fill="#0069FF"/>
    <circle cx="2" cy="82" r="2" fill="#0069FF"/>
    <path fill="#0069FF" d="M29,100.491818 C29,100.398658 29.0014998,100.305848 29.0044764,100.213411 C33.4730781,100.069474 37.069474,96.4730775 37.2134112,92.0044757 C37.3058474,92.0014995 37.3986574,92 37.4918184,92 C37.5849788,92 37.6777889,92.0014998 37.7702257,92.0044764 C37.9141632,96.4730781 41.5105594,100.069474 45.9791611,100.213411 C45.9821373,100.305847 45.9836369,100.398657 45.9836369,100.491818 C45.9836369,100.584979 45.9821371,100.677789 45.9791604,100.770226 C41.5105588,100.914163 37.9141628,104.510559 37.7702256,108.979161 C37.6777895,108.982137 37.5849795,108.983637 37.4918184,108.983637 C37.398658,108.983637 37.305848,108.982137 37.2134112,108.97916 C37.0694736,104.510559 33.4730775,100.914163 29.0044757,100.770226 C29.0014995,100.677789 29,100.584979 29,100.491818 Z"/>
    <use stroke="#0069FF" stroke-width="4" mask="url(#c)" stroke-linecap="round" stroke-linejoin="round" xlink:href="#a"/>
    <use stroke="#0069FF" stroke-width="4" mask="url(#d)" stroke-linecap="round" stroke-linejoin="round" transform="rotate(33 101.747 47.747)" xlink:href="#b"/>
  </g>
</svg>
